<?xml version="1.0" standalone="no"?>
<!DOCTYPE svg PUBLIC "-//W3C//DTD SVG 1.1//EN" "http://www.w3.org/Graphics/SVG/1.1/DTD/svg11.dtd" >
<svg xmlns="http://www.w3.org/2000/svg" xmlns:xlink="http://www.w3.org/1999/xlink" version="1.1">
<metadata></metadata>
<defs>
<font id="ciclefina_italic" horiz-adv-x="1220" >
<font-face units-per-em="2048" ascent="1638" descent="-410" />
<missing-glyph horiz-adv-x="526" />
<glyph horiz-adv-x="0" />
<glyph unicode="&#xd;" horiz-adv-x="526" />
<glyph unicode=" "  horiz-adv-x="526" />
<glyph unicode="&#x09;" horiz-adv-x="526" />
<glyph unicode="&#xa0;" horiz-adv-x="526" />
<glyph unicode="!" horiz-adv-x="360" d="M123 31q4 20 21.5 33.5t37.5 13.5q23 0 31 -13.5t6 -33.5q-4 -20 -20.5 -34.5t-36.5 -14.5t-31.5 14t-7.5 35zM172 203l256 1212h74l-256 -1212h-74z" />
<glyph unicode="&#x22;" horiz-adv-x="444" d="M338 1135l37 280h98l-12 -129l-113 -164zM492 1135l36 280h99l-13 -129l-112 -164z" />
<glyph unicode="#" horiz-adv-x="1462" d="M160 0l260 453h-258l94 90h217l168 293h-397l92 90h358l228 393h92l-226 -393h492l227 393h92l-225 -393h238l-92 -90h-199l-170 -293h381l-94 -90h-340l-258 -453h-95l261 453h-494l-258 -453h-94zM565 543h494l168 293h-492z" />
<glyph unicode="$" horiz-adv-x="954" d="M113 174l80 55q29 -63 95 -112t161 -49l124 594q-76 14 -135 48.5t-96 86t-50 114t3 131.5q14 74 55 136.5t99.5 111.5t131 82t154.5 45l19 92h86l-19 -88q113 0 194 -43t130 -114l-82 -56q-37 59 -103.5 96t-154.5 37l-129 -606q76 -16 135 -51t98 -85t53.5 -112.5 t0.5 -132.5q-16 -72 -57.5 -135t-102 -112.5t-134 -81t-153.5 -39.5l-27 -121h-86l27 117q-8 2 -22 2q-106 10 -183.5 62t-111.5 128zM387 1051q-23 -106 34.5 -190.5t170.5 -110.5l125 585q-57 -10 -112.5 -36.5t-99.5 -64.5t-76 -85t-42 -98zM535 72q57 8 112 31.5 t101.5 59.5t78 83t43.5 102t2 104.5t-38.5 90.5t-73.5 68.5t-103 39.5z" />
<glyph unicode="&#x26;" horiz-adv-x="1222" d="M166 385q25 117 125 218.5t280 176.5l60 25l-29 43q-39 55 -60.5 97t-30.5 76t-8 62.5t7 55.5q12 53 45 104t83 91t113.5 64.5t137.5 24.5q66 0 116 -21.5t81.5 -58t44 -86t-0.5 -104.5q-18 -90 -96 -168t-227 -151l-51 -25l250 -422l41 57q29 39 54 82t48 92l96 -22 q-41 -78 -88 -150.5t-94 -123.5l-12 -41v-7q12 -29 21 -47t19.5 -34.5t24.5 -34t37 -39.5l-23 -105q-45 35 -72.5 75t-62.5 93l-22 37l-41 -37q-98 -92 -205.5 -138t-218.5 -44q-92 0 -163 30.5t-116 84t-62 123t-1 147.5zM277 280.5q10 -57.5 41.5 -103.5t83 -74.5 t120.5 -28.5q45 0 97.5 14t102.5 40t98 62.5t85 79.5l21 25l-271 463l-37 -21q-164 -86 -242.5 -168t-96.5 -174q-12 -57 -2 -114.5zM612 1157q-18 -92 41 -180l78 -119l33 16q68 35 115 68t77.5 64.5t47 66.5t26.5 76q18 90 -25.5 151.5t-138.5 61.5q-43 0 -85 -16.5 t-76.5 -44t-59 -64.5t-33.5 -80z" />
<glyph unicode="'" horiz-adv-x="247" d="M289 1139l94 137l12 129l101 10l-13 -129l-186 -160z" />
<glyph unicode="(" horiz-adv-x="532" d="M179 73.5q-9 110.5 1 241.5t41 277q29 137 73 264t97 235.5t113.5 193.5t122.5 138l18 -100q-49 -47 -96 -122t-90 -170t-79 -206.5t-61 -232.5q-29 -133 -40 -254t-7 -221.5t24.5 -175t55.5 -115.5l-67 -86q-43 51 -70 137t-36 196.5z" />
<glyph unicode=")" horiz-adv-x="503" d="M82 -174q53 41 105.5 115.5t99.5 175t87 221.5t68 254q25 121 37.5 232.5t10 206.5t-17.5 170t-44 122l59 100q39 -53 62.5 -138t32 -193.5t-2 -235.5t-38.5 -264q-31 -145 -77 -276.5t-102.5 -242t-119 -196.5t-125.5 -137z" />
<glyph unicode="*" horiz-adv-x="964" d="M369 1106l18 84h248l-139 176l73 61l138 -176l53 250h86l-53 -250l215 176l47 -59l-213 -176h250l-19 -86h-250l140 -178l-72 -60l-141 176l-54 -249h-86l54 247l-213 -174l-50 60l213 178h-245z" />
<glyph unicode="+" horiz-adv-x="925" d="M233 559l17 86h309l68 309h86l-68 -309h311l-16 -86h-311l-68 -311h-86l68 311h-310z" />
<glyph unicode="," horiz-adv-x="354" d="M51 -129l109 129l26 131h99l-27 -131l-199 -141z" />
<glyph unicode="-" horiz-adv-x="862" d="M205 559l16 86h707l-17 -86h-706z" />
<glyph unicode="." horiz-adv-x="296" d="M88 0l27 131h131l-27 -131h-131z" />
<glyph unicode="/" horiz-adv-x="774" d="M92 0l817 1415h92l-815 -1415h-94z" />
<glyph unicode="0" horiz-adv-x="1200" d="M218 424q-13 131 20 281q31 150 100.5 280.5t160.5 228t197.5 153.5t212.5 56t189.5 -56t132.5 -153.5t61.5 -228.5t-18.5 -280q-33 -150 -101.5 -281t-158.5 -229.5t-196.5 -155.5t-213.5 -57q-106 0 -189 57t-133.5 155.5t-63.5 229.5zM305 456q10 -116 51 -202 t108.5 -136t158.5 -50q90 0 179 50t165.5 136t135 201.5t87.5 249.5q27 131 17.5 246.5t-49.5 201.5t-108.5 135t-158.5 49t-179 -49t-166 -135t-136 -201.5t-86 -246.5q-29 -133 -19 -249z" />
<glyph unicode="1" horiz-adv-x="538" d="M330 1202l303 213h86l-299 -1415h-86l276 1305l-231 -162z" />
<glyph unicode="2" horiz-adv-x="972" d="M117 0l16 84l739 668q51 47 87 106.5t53 126.5q14 74 -0.5 138.5t-53 112.5t-98 74.5t-135.5 26.5q-72 0 -141.5 -26.5t-128.5 -73.5l-49 61q74 55 159.5 90t177.5 35t166 -34.5t122 -94t66.5 -139.5t0.5 -170q-18 -86 -67.5 -161.5t-117.5 -133.5l-665 -606h657l-16 -84 h-772z" />
<glyph unicode="3" horiz-adv-x="882" d="M80 123l72 59q35 -53 99 -87t148 -34q72 0 140.5 25t124 68t95.5 99t52 122q12 59 -1 111.5t-47 93.5t-87 67.5t-117 32.5h-190l18 86h191q68 4 132 27.5t115.5 62.5t87 89t48.5 106q12 61 -4.5 113.5t-54.5 91t-96 61t-128 22.5q-86 0 -165 -29.5t-138 -82.5l-47 61 q74 66 169 100.5t197 34.5q90 0 163 -28.5t122 -79.5t69.5 -119t4.5 -145q-25 -111 -112 -198t-202 -132q96 -49 139.5 -141.5t18.5 -204.5q-18 -84 -67.5 -156t-119 -126t-154.5 -85t-175 -31q-102 0 -180 40t-121 106z" />
<glyph unicode="4" horiz-adv-x="968" d="M186 520l19 86h4l639 809l65 -41l-608 -768h420l68 316h86l-68 -316h203l-19 -86h-202l-109 -520h-86l109 520h-521z" />
<glyph unicode="5" horiz-adv-x="1032" d="M188 201l72 59q31 -80 99.5 -127t164.5 -47q76 0 151 33t137 90t107.5 135t63.5 166t6 165t-50 133t-98.5 89t-135.5 33q-106 0 -204 -57.5t-161 -151.5h-86l197 694h755l-18 -86h-670l-145 -459q72 66 163 105t187 39q94 0 169 -40t122 -107.5t62.5 -160t-7.5 -196.5 t-77 -197.5t-130 -163t-168 -109.5t-186 -40q-111 0 -195 54.5t-125 146.5z" />
<glyph unicode="6" horiz-adv-x="1036" d="M203 391l2 6q10 80 27.5 165t33.5 163q18 90 42 173t54 161q31 76 83.5 141.5t119 114.5t142 78.5t155.5 31.5q111 0 197 -46t133 -132l-98 -53q-33 66 -97.5 105.5t-148.5 39.5q-63 0 -126 -23.5t-118 -64.5t-100 -97t-70 -122q-31 -76 -54.5 -158.5t-43.5 -173.5 q-4 -16 -5 -30.5t-5 -30.5q72 86 171 138t210 57q88 0 160.5 -31t120.5 -85t68.5 -129t2.5 -165q0 -4 -1 -9t-1 -9q-18 -90 -68.5 -167t-121 -134.5t-155.5 -89t-173 -31.5q-86 0 -155 31.5t-114 86t-63.5 129t-3.5 160.5zM289 269q14 -60 51 -105t93 -71.5t126 -26.5 t137.5 26.5t124 72.5t96 106.5t54.5 129.5q2 4 2 9.5t2 9.5q12 70 -3.5 130t-52 104t-93 70t-126.5 26q-72 0 -140 -29t-123.5 -77t-94.5 -111.5t-53 -133.5t0 -130z" />
<glyph unicode="7" horiz-adv-x="907" d="M92 0l899 1329h-573l18 86h717l-958 -1415h-103z" />
<glyph unicode="8" horiz-adv-x="940" d="M149 232.5q-17 74.5 1 158.5q27 125 112.5 223.5t196.5 149.5q-72 45 -107 126t-14 179q16 74 58 138.5t102.5 112.5t132 75.5t145.5 27.5q78 0 139.5 -27.5t101.5 -75.5t54 -112.5t-2 -138.5q-20 -98 -87 -179t-163 -126q96 -51 137 -149.5t15 -223.5 q-18 -84 -65.5 -158.5t-115 -130t-150.5 -88t-169 -32.5q-84 0 -151.5 32.5t-110.5 88t-60 130zM235 267q13 -58 47.5 -103t88 -70.5t118.5 -25.5q68 0 133.5 25.5t119 70.5t91 103.5t52.5 123.5q14 68 1.5 127.5t-48 104.5t-90 70.5t-121.5 25.5q-66 0 -129.5 -25.5 t-116.5 -70.5t-92 -104.5t-53 -127.5q-14 -66 -1 -124zM424 966q12 -48 42 -84t76 -57.5t103 -21.5t113.5 21.5t101.5 57.5t77 84t44 103t1 104.5t-42 86t-78 57t-104 20.5t-111.5 -20.5t-99.5 -57t-78 -86t-45 -104.5t0 -103z" />
<glyph unicode="9" horiz-adv-x="1001" d="M156 154l98 67q35 -70 99.5 -108.5t144.5 -38.5q68 0 132 22.5t119.5 62.5t99.5 95t71 119q55 150 92 323q4 16 7 34t7 36q-76 -86 -180.5 -136t-220.5 -50q-84 0 -154 31.5t-116 86t-64 128t-2 159.5q0 4 1 7t1 7q18 88 68.5 165t120 135.5t154.5 92t173 33.5 t158.5 -32.5t116.5 -88t64.5 -130t4.5 -160.5l-2 -6q-10 -84 -29.5 -172t-38.5 -172q-16 -82 -38.5 -161t-51.5 -153q-33 -80 -88 -147.5t-124.5 -115.5t-150.5 -74.5t-163 -26.5q-102 0 -183 47t-126 121zM371 989q-10 -68 5 -127t52 -103t91 -69.5t122 -25.5 q74 0 142.5 26.5t126 72.5t97.5 108.5t56 134.5q14 68 -1 128t-53 105t-94.5 71.5t-123.5 26.5q-74 0 -142.5 -28.5t-125 -75.5t-97.5 -110.5t-55 -133.5z" />
<glyph unicode=":" horiz-adv-x="372" d="M125 0l27 131h131l-27 -131h-131zM313 893l29 131h131l-29 -131h-131z" />
<glyph unicode=";" horiz-adv-x="346" d="M29 -129l108 129l27 131h98l-26 -131l-199 -141zM313 893l29 131h131l-29 -131h-131z" />
<glyph unicode="&#x3c;" horiz-adv-x="675" d="M166 508l606 504l49 -60l-534 -444l348 -434l-74 -64z" />
<glyph unicode="=" horiz-adv-x="901" d="M229 410l19 90h686l-19 -90h-686zM313 807l21 90h686l-21 -90h-686z" />
<glyph unicode="&#x3e;" horiz-adv-x="688" d="M94 74l533 434l-346 444l77 60l390 -504l-605 -498z" />
<glyph unicode="?" horiz-adv-x="839" d="M338 657l16 84h193q61 2 117.5 26t103.5 63.5t81 93t46 112.5q12 63 2 118.5t-41 96.5t-79 64.5t-107 23.5q-80 0 -154 -41t-127 -106l-47 59q66 78 157 125t187 47q78 0 139.5 -30.5t101.5 -83t54 -123t-2 -150.5q-16 -76 -59 -144.5t-104.5 -120.5t-135.5 -83t-150 -31 h-108l53 -657h-90zM381 -197q4 25 24.5 39.5t43.5 14.5q51 0 40 -54q-4 -25 -22 -42t-43 -17q-23 0 -35 17t-8 42z" />
<glyph unicode="@" horiz-adv-x="1544" d="M234.5 380q-27.5 124 7.5 288q33 160 113.5 298t196.5 239.5t261 159.5t307 58q123 0 226.5 -38.5t174 -112.5t98.5 -180.5t-1 -243.5q-18 -92 -69.5 -187.5t-122 -174t-157.5 -133t-179 -64.5q-16 0 -37 3t-40.5 9t-37 17.5t-23.5 31.5q-86 -68 -186 -67q-53 0 -96 20.5 t-71 57t-39 85t1 103.5q12 57 44 105t76 83t97 55.5t109 20.5h164l4 25l-6 -29q10 45 16 87t3 75t-18.5 52t-45.5 19q-47 0 -76 -3t-70 -17l-12 -2l-2 90l10 2q47 14 81 18.5t87 4.5h2q49 -2 76.5 -28t40 -68t10.5 -96t-12 -116l8 27q-10 -47 -23 -100q-10 -45 -23.5 -99.5 t-23.5 -109.5q-6 -29 -16 -58.5t-10 -53t15 -39t60 -15.5q23 0 58 15.5t73.5 43t77.5 65.5t70 81q16 25 33.5 59.5t33 72.5t26.5 73.5t18 60.5q20 94 -0.5 180t-76 149.5t-143.5 101.5t-204 38q-131 0 -253 -48t-222.5 -134t-171 -203t-99.5 -254q-57 -268 77 -419.5 t433 -151.5q186 0 329.5 64.5t225.5 156.5l4 4h129l-14 -19q-47 -61 -115.5 -117.5t-158 -99.5t-196 -69.5t-224.5 -26.5q-162 0 -288 43t-206 127t-107.5 208zM635 549q-16 -78 27 -131t120 -53q37 0 74 14t67.5 38.5t52 58.5t30.5 73l38 182h-176q-80 0 -147.5 -51 t-85.5 -131z" />
<glyph unicode="A" d="M66 0l821 1415h71l224 -1415h-90l-95 588h-497l-344 -588h-90zM547 674h436l-92 590z" />
<glyph unicode="B" horiz-adv-x="1048" d="M111 0l299 1415h86h366q78 -2 140.5 -30.5t102.5 -75.5q41 -47 57 -109q9 -33 8 -68q0 -32 -7 -65q-23 -104 -95.5 -187t-174.5 -130q98 -46 140 -140q27 -60 27 -128q0 -39 -9 -81q-16 -80 -62.5 -151.5t-113 -125.5t-146.5 -86t-166 -34l-37 -4h-415zM213 86h330h37 q68 2 131 28.5t115.5 69.5t89 98.5t49.5 118.5q6 29 6 56q1 31 -7 59q-14 54 -47.5 96.5t-86 68.5t-117.5 30h-367zM365 797h366q61 2 118.5 23.5t104.5 57t79 85t44 104.5q6 26 6 50.5t-6 47.5q-12 47 -44 84t-80 58.5t-107 25.5h-37h-330z" />
<glyph unicode="C" horiz-adv-x="1208" d="M204 425q-11 58 -10 120q0 78 17 162q31 143 107.5 273t185 228.5t237.5 156.5t265 58q127 0 229 -52t168 -144l-72 -64l2 6q-59 78 -147 123t-199 45q-115 0 -225.5 -49t-204.5 -135t-162.5 -200.5t-95.5 -245.5q-18 -80 -18 -156q1 -45 7 -89q18 -116 74 -203t146 -138 t211 -51q111 0 214 44t197 122l46 -58q-106 -92 -227.5 -144t-248.5 -52t-231 57t-172.5 155.5t-92.5 230.5z" />
<glyph unicode="D" horiz-adv-x="1177" d="M78 0l299 1415h86h436q102 -2 181 -57t125 -150q45 -96 57 -224q3 -35 4 -71q0 -97 -23 -202q-31 -145 -95.5 -273.5t-150.5 -223.5t-187 -151.5t-206 -58.5v-4h-526zM180 86h441l2 4q84 2 167.5 52.5t156.5 134t128 195.5t82 239q21 95 21 183q0 28 -2 54 q-8 112 -45 196.5t-100.5 133.5t-149.5 51h-437z" />
<glyph unicode="E" horiz-adv-x="993" d="M92 0l299 1415h817l-16 -82h-731l-115 -536h625l-19 -86h-624l-133 -625h731l-17 -86h-817z" />
<glyph unicode="F" horiz-adv-x="997" d="M100 0l299 1415h818l-17 -80h-731l-115 -538h625l-18 -86h-625l-150 -711h-86z" />
<glyph unicode="G" horiz-adv-x="1236" d="M192 422q-9 55 -9 113q0 80 18 165q31 150 109.5 281t188 229.5t239.5 155.5t263 57q129 0 230.5 -52t169.5 -144l-70 -60q-59 78 -148 123t-200 45q-117 0 -229.5 -49t-206.5 -135t-163 -201.5t-97 -249.5q-17 -77 -17 -148q0 -51 8 -98q21 -116 78.5 -203t148.5 -137.5 t208 -50.5q102 0 201.5 40t183.5 106l86 405h-391l18 82h477l-110 -516v-6q-109 -92 -231 -142t-251 -50q-133 0 -239.5 56t-174 154.5t-90.5 229.5z" />
<glyph unicode="H" horiz-adv-x="1142" d="M102 0l299 1415h86l-131 -618h781l131 618h86l-299 -1415h-86l149 711h-780l-150 -711h-86z" />
<glyph unicode="I" horiz-adv-x="282" d="M102 0l299 1415h86l-299 -1415h-86z" />
<glyph unicode="J" horiz-adv-x="624" d="M86 68l68 59q16 -27 42.5 -43t55.5 -16q37 0 72.5 20.5t67.5 56t56.5 86t36.5 109.5l228 1075h88l-228 -1071q-16 -74 -51 -139.5t-81 -115.5t-100 -78.5t-108 -28.5q-47 0 -84.5 23.5t-62.5 62.5z" />
<glyph unicode="K" horiz-adv-x="1193" d="M92 0l299 1415h86l-164 -770l824 770h116l-657 -614l514 -801h-111l-473 735l-239 -223l-109 -512h-86z" />
<glyph unicode="L" horiz-adv-x="927" d="M92 0l299 1415h86l-282 -1329h690l-17 -86h-776z" />
<glyph unicode="M" horiz-adv-x="1275" d="M72 0l299 1415h86l301 -790l626 790h89l-299 -1415h-89l265 1249l-592 -747h-53l-283 747l-264 -1249h-86z" />
<glyph unicode="N" horiz-adv-x="1099" d="M98 0l299 1415h84l469 -1243l264 1243h86l-299 -1415h-86l-469 1249l-264 -1249h-84z" />
<glyph unicode="O" horiz-adv-x="1413" d="M202 420q-10 55 -10 114q0 83 19 173q31 150 109.5 279.5t186 227t236.5 153.5t263 56q137 0 243.5 -56t172.5 -153q66 -96 86 -227q8 -52 8 -107q0 -83 -19 -173q-35 -160 -113.5 -294.5t-195.5 -232.5q-109 -96 -233 -147t-255 -51q-129 0 -234.5 55t-172.5 152.5 t-91 230.5zM288 458q18 -116 75 -202t148 -136t208 -50q119 0 232.5 50t206.5 136t160.5 201.5t96.5 249.5q17 80 17 153q0 54 -10 104q-22 118 -87 203q-55 80 -145 124t-203 44q-115 0 -226.5 -49t-204.5 -134t-161.5 -199.5t-95.5 -245.5q-18 -81 -17 -156q-1 -48 6 -93z " />
<glyph unicode="P" horiz-adv-x="983" d="M111 0l299 1415h407q82 0 149.5 -27.5t111.5 -74.5t62 -111q10 -35 9 -73q0 -30 -6 -62q-16 -76 -61.5 -141.5t-110 -113.5t-143 -75.5t-160.5 -27.5h-322l-149 -709h-86zM365 795h321q63 0 124.5 20.5t112 57t85 86t47.5 108.5q5 25 5 48q0 27 -8 55q-14 48 -48.5 84 t-87 57.5t-115.5 21.5h-6h-316z" />
<glyph unicode="Q" horiz-adv-x="1361" d="M230 494q-10 50 -10 104q0 75 18 156q31 143 104.5 265t173.5 212t219 141t238 51q121 0 218 -51t160.5 -142t86.5 -213q9 -52 9 -108q0 -74 -17 -155q-31 -141 -110 -266.5t-183 -215.5q-82 -74 -176.5 -118.5t-192.5 -59.5q-2 -17 -2 -32q0 -45 14 -76q17 -43 51 -43 q23 0 41.5 13t30.5 34l47 -49q-35 -35 -68.5 -56.5t-68.5 -21.5q-63 0 -97 65q-29 56 -29 131q0 13 1 27q-119 2 -215 55.5t-158.5 142.5t-84.5 210zM306 526q18 -106 70 -186t136 -128t188 -50q1 6 1 12q0 29 -17 50q-19 24 -55 24h-6l16 74h6q68 0 105 -42q34 -40 34 -101 v-13q94 18 185.5 71.5t167 131t131 176t80.5 209.5q17 75 17 144q0 50 -9 98q-21 112 -82 194q-53 74 -132 117t-184 43q-104 0 -208.5 -46.5t-191.5 -127t-151.5 -189t-91.5 -233.5q-16 -73 -16 -140q0 -45 7 -88z" />
<glyph unicode="R" horiz-adv-x="970" d="M90 0l299 1415h406q84 0 151.5 -27.5t111.5 -74.5t62 -111q9 -34 9 -71q0 -32 -7 -66q-16 -74 -61 -138.5t-109.5 -112.5t-143.5 -75.5t-163 -27.5h-203l476 -711h-111l-477 711h-4l-150 -711h-86zM344 797h320q63 0 125.5 20.5t112.5 56t86 85t48 106.5q5 24 5 48 q0 29 -8 57q-15 50 -50 86t-88 57.5t-117 21.5h-4h-315z" />
<glyph unicode="S" horiz-adv-x="993" d="M131 174l80 55q35 -74 107.5 -117.5t181.5 -43.5q66 0 130 21.5t117.5 58t90 88t49.5 110.5q6 29 6 56q-1 28 -7 56q-12 52 -43.5 94t-82.5 68.5t-115 34.5h-6q-86 8 -154.5 42t-111.5 86.5t-59 120.5q-8 34 -9 69q0 35 8 71q16 80 65.5 150t119 120t155.5 78.5t176 28.5 q117 0 200 -41t134 -116l-82 -56q-39 61 -107.5 97t-160.5 36q-68 0 -135.5 -22.5t-123.5 -61t-96 -91t-52 -113.5q-6 -28 -6 -56q0 -29 7 -57q13 -54 47.5 -96.5t89 -70.5t122.5 -34q82 -12 147.5 -46t108.5 -85q43 -50 58 -116q8 -34 8 -70q0 -33 -7 -68 q-16 -78 -63.5 -146.5t-116 -118.5t-152.5 -78.5t-172 -28.5q-125 0 -215 53t-131 139z" />
<glyph unicode="T" horiz-adv-x="1177" d="M371 1333l16 82h549h461l-17 -82h-460l-283 -1333h-86l283 1333h-463z" />
<glyph unicode="U" horiz-adv-x="1224" d="M164 354l225 1061h92l-225 -1061q-2 -15 -2 -29q0 -43 18 -83q24 -52 74.5 -89.5t124.5 -60t162 -22.5q84 0 165 22.5t146.5 60t111.5 90t62 111.5l225 1061h87l-226 -1061q-18 -76 -74.5 -143.5t-136.5 -118.5t-178 -80.5t-201 -29.5q-106 0 -194 29.5t-148 80.5 q-62 51 -90 119q-21 50 -21 105q0 19 3 38z" />
<glyph unicode="V" horiz-adv-x="1308" d="M389 1415h90l205 -1288l750 1288h90l-822 -1415h-90z" />
<glyph unicode="W" horiz-adv-x="1873" d="M395 1415h90l207 -1288l348 604l-106 684h90l88 -563l117 -725l747 1288h92l-819 -1415h-94l-96 604l-348 -604h-93z" />
<glyph unicode="X" horiz-adv-x="1107" d="M80 0l575 725l-258 690h97l237 -618l496 618h100l-563 -704l264 -711h-100l-242 639l-510 -639h-96z" />
<glyph unicode="Y" horiz-adv-x="1394" d="M373 1415h116l359 -692l657 692h115l-743 -774l-136 -641h-88l135 641z" />
<glyph unicode="Z" horiz-adv-x="1122" d="M72 0l1110 1329h-770l18 86h850h72l-1108 -1329h753l-16 -86h-850h-59z" />
<glyph unicode="[" horiz-adv-x="430" d="M231 684l19 86h41q39 0 70.5 26.5t39.5 65.5l99 461v4l2 6q14 37 54 59.5t85 22.5l-18 -88q-35 0 -35 -4l-105 -485q-14 -27 -42.5 -47.5t-59.5 -20.5l-19 -86q31 0 51.5 -17.5t24.5 -48.5l-112 -522q0 -10 32 -10l-16 -86q-18 0 -38.5 7t-36 19.5t-25 30t-4.5 39.5 l106 496q8 41 -12.5 66.5t-59.5 25.5h-41z" />
<glyph unicode="\" horiz-adv-x="759" d="M391 1415h92l219 -1415h-94z" />
<glyph unicode="]" horiz-adv-x="374" d="M59 0l17 86q16 0 27.5 3t15.5 7l112 522q12 31 38 48.5t57 17.5l22 86q-35 0 -52 20.5t-20 47.5l105 485q-6 4 -41 4l18 88q53 0 81 -23.5t26 -58.5l2 -6v-4l-98 -461q-8 -39 9 -65.5t54 -26.5h43l-18 -86h-43q-37 0 -66 -25.5t-37 -66.5l-106 -496q-4 -20 -19.5 -37.5 t-36 -31t-45 -20.5t-45.5 -7z" />
<glyph unicode="^" horiz-adv-x="1128" d="M260 918l608 497l394 -500l-78 -61l-340 440l-539 -440z" />
<glyph unicode="_" horiz-adv-x="1050" d="M86 0l16 86h861l-17 -86h-860z" />
<glyph unicode="`" horiz-adv-x="417" d="M344 1311h135l96 -178h-47z" />
<glyph unicode="a" horiz-adv-x="831" d="M143 289q14 68 54.5 125t96.5 99t123.5 64.5t137.5 22.5h233l9 45q11 47 11 92q0 13 -1 25q-4 56 -23.5 96.5t-54.5 65t-84 26.5h-2q-133 0 -244 -30l-4 81q129 35 267 35h2q59 -2 107 -29.5t79 -74.5q31 -46 43 -110q6 -32 6 -66t-6 -70l-4 -20q-14 -51 -27 -109 q-10 -49 -24.5 -111.5t-26.5 -126.5q-12 -59 -23.5 -114t-19.5 -100.5t-11 -73t1 -31.5h-96l16 82q-59 -47 -128 -74.5t-142 -27.5q-68 0 -122.5 24.5t-90 66.5t-49.5 98q-8 31 -8 64q0 27 5 56zM231 289q-5 -22 -4 -42q-1 -23 5 -45q12 -40 38.5 -70t66.5 -47t91 -17t99 17 t88 47t68 70t38 87l49 227h-233q-53 0 -103.5 -16.5t-91.5 -46t-70.5 -71.5t-40.5 -93z" />
<glyph unicode="b" horiz-adv-x="1071" d="M106 0q4 6 14.5 37t20.5 65l25 91l260 1222h86l-96 -459q61 39 144 59.5t175 20.5q102 0 183 -42t132 -114q52 -72 70 -168q8 -41 7 -85q0 -57 -13 -117q-23 -109 -82 -205t-140 -167.5t-180.5 -113.5t-201.5 -44q-94 4 -169 25.5t-122 55.5l-12 -61h-101zM246 193 q-4 -25 15.5 -47.5t58 -40t92 -27.5t116.5 -12q84 2 165 37.5t149.5 95t118 140.5t67.5 171q10 50 10 96q0 37 -6 72q-14 80 -57 140.5t-109.5 96t-148.5 35.5q-59 0 -114.5 -8t-99.5 -23.5t-76 -36t-42 -42.5z" />
<glyph unicode="c" horiz-adv-x="978" d="M152 304q-8 42 -9 87q0 56 13 117q23 109 82 205t142 167.5t180 113.5t198 42q106 0 187 -44t130 -115l-74 -64q-41 61 -107.5 99t-154.5 38q-84 0 -164.5 -34.5t-148.5 -94t-116 -140.5t-68 -173q-10 -51 -10 -98q0 -37 6 -73q14 -81 56 -140.5t108.5 -94t150.5 -34.5 t165 34.5t148 96.5l49 -60q-86 -72 -182 -114.5t-198 -42.5q-100 0 -180.5 42t-132.5 113.5t-70 166.5z" />
<glyph unicode="d" horiz-adv-x="1093" d="M211 310q-8 43 -8 89q0 56 12 117q23 106 82 201.5t141 166t179.5 111.5t199.5 41h4h-4q188 0 287 -80l96 459h86l-258 -1218q-10 -51 -18 -91q-6 -35 -9.5 -65.5t0.5 -34.5h-100l12 60q-59 -35 -142 -55.5t-177 -24.5q-100 2 -181 44t-132.5 113t-69.5 167zM295 346 q14 -80 57 -140.5t109.5 -97t150.5 -38.5h4q63 2 120 14t101 28.5t71.5 38t33.5 46.5l137 645q-4 45 -80.5 76.5t-199.5 31.5q-86 -2 -168 -37.5t-149.5 -94t-116 -136.5t-66.5 -166q-10 -51 -10 -98q0 -37 6 -72z" />
<glyph unicode="e" horiz-adv-x="933" d="M160 471l8 39q25 109 77 205t122.5 167.5t153.5 113.5t167 42q86 0 150.5 -40t104.5 -110q39 -69 51 -163q4 -30 4 -61q0 -68 -17 -144l-10 -49h-723q-6 -43 -6 -83t6 -76q12 -74 47 -128.5t88 -86t121 -31.5q33 0 70.5 7t75.5 18t73 24.5t63 25.5l19 -75 q-59 -29 -125 -49.5t-137 -32.5h-2q-12 -2 -25.5 -2h-28.5q-86 0 -153.5 37.5t-111.5 104t-62 156.5q-9 45 -8 94q0 47 8 97zM266 555h641q6 41 6 79q0 40 -6 76q-12 72 -44 125.5t-81 84t-112 30.5q-61 0 -123 -30.5t-116 -84t-97 -126t-68 -154.5z" />
<glyph unicode="f" horiz-adv-x="671" d="M233 0q35 172 72 340q14 72 30.5 148.5t32 151.5t31 144.5t27.5 128.5h-156l19 88h151q2 0 6 15q0 8 5 24q2 8 2 15l6 24q18 70 56 132.5t88 109.5t108.5 74.5t117.5 27.5h50.5t48.5 -4l-43 -84q-12 4 -33 4h-39q-47 -2 -91 -24.5t-81 -61.5t-64.5 -90t-39.5 -108 l-13 -54h271l-19 -88h-270l-193 -913h-80z" />
<glyph unicode="g" horiz-adv-x="1128" d="M53 -82q20 92 94 167t179 116q-6 18 -7.5 42.5t5.5 53.5q8 35 26.5 64.5t40.5 46.5q-59 51 -85 122q-15 43 -15 90q0 30 6 62q14 74 60 138.5t112 112.5t145.5 75.5t165.5 27.5q45 0 80 -6t70 -16h354l-102 -86h-129q43 -47 59 -108q8 -31 8 -65.5t-8 -72.5 q-16 -74 -61 -137.5t-111 -110.5t-145.5 -74.5t-163.5 -27.5q-51 0 -89 12t-75 12q-23 0 -47.5 -11t-30.5 -44q-10 -43 11.5 -54t45.5 -11q10 0 20.5 1t16.5 1q12 4 25.5 4h23.5q86 0 156 -26t116 -69t66 -102q11 -33 11 -70q0 -27 -7 -57q-14 -68 -58 -127t-109.5 -103 t-146.5 -71t-167 -27q-84 0 -152.5 27t-114.5 71t-66 103q-13 35 -13 73q0 26 6 54zM135 -82q-4 -18 -4 -36q0 -30 11 -58q16 -45 53.5 -79t93 -53.5t121.5 -19.5q70 0 134 19.5t116.5 53.5t88 79t46.5 94q4 19 4 38q0 28 -9 55q-16 44 -54 78t-94 54.5t-126 20.5 q-66 0 -130 -20.5t-116.5 -54.5t-88.5 -78t-46 -93zM381 682q-5 -24 -5 -48q0 -29 8 -56q15 -50 51 -85.5t90.5 -57t121.5 -21.5q70 0 134.5 21.5t116.5 57t87 85t47 104.5q6 26 6 51q0 29 -8 57q-14 50 -50 86.5t-91 57t-125 20.5q-68 0 -131.5 -20.5t-115.5 -57t-88 -87 t-48 -107.5z" />
<glyph unicode="h" horiz-adv-x="931" d="M96 0l301 1419h86l-114 -540q66 76 146.5 117.5t170.5 41.5q72 0 128 -28.5t92 -79.5t48 -119q6 -31 6 -64q0 -39 -8 -81l-135 -660h-86l141 660q5 29 5 56q0 30 -6 57q-11 52 -39.5 91t-73.5 61.5t-101 22.5q-49 0 -99 -19.5t-95 -54t-80 -81.5t-53 -103l-148 -696h-86z " />
<glyph unicode="i" horiz-adv-x="362" d="M135 0l217 1024h84l-217 -1024h-84zM401 1331q4 23 24.5 39t45.5 16q23 0 38 -16t11 -39t-26.5 -39t-44.5 -16q-25 0 -38.5 16t-9.5 39z" />
<glyph unicode="j" horiz-adv-x="724" d="M23 -397l26 80q23 0 44.5 -3.5t43.5 -3.5l6 7q43 0 86 21.5t79 59t62.5 88t39.5 105.5l227 1069h86l-231 -1089q-18 -70 -56.5 -131.5t-87.5 -107.5t-107.5 -73.5t-117.5 -30.5h-4q-27 0 -50.5 3.5t-45.5 5.5zM684 1321q4 25 22.5 40t45.5 15q20 0 33.5 -15t9.5 -40 q-6 -23 -25.5 -39t-40.5 -16q-27 0 -39 16t-6 39z" />
<glyph unicode="k" horiz-adv-x="901" d="M117 0q4 4 12 27.5t16 64.5l281 1323h86l-156 -731l463 328h131l-366 -258l270 -754h-100l-250 692l-170 -121l-121 -571h-96z" />
<glyph unicode="l" horiz-adv-x="331" d="M135 0l299 1415h86l-299 -1415h-86z" />
<glyph unicode="m" horiz-adv-x="1513" d="M86 0l195 924q8 35 11 65.5t1 34.5h96l-20 -96l-13 -54q66 76 148 118t168 42q109 0 179.5 -64.5t90.5 -162.5q33 61 78 105t93 72t98.5 41t93.5 13q72 0 128 -28.5t91 -78.5t48 -119q6 -33 6 -68q0 -38 -7 -78l-137 -662h-86l141 662q5 28 5 55q0 29 -6 56 q-11 52 -40 91t-72 61.5t-98 22.5q-51 0 -102.5 -20.5t-95.5 -55t-77.5 -80.5t-52.5 -100l-147 -692h-86l139 658q6 32 6 61q0 27 -5 52q-11 52 -40 90t-74 60.5t-100 22.5q-51 0 -101 -19.5t-93 -54t-78 -80.5t-54 -102l-145 -692h-86z" />
<glyph unicode="n" horiz-adv-x="886" d="M82 0l197 930q8 35 10 58.5t-2 27.5h96l-18 -82l-11 -55q66 78 148 119.5t170 41.5q72 0 128 -29.5t92 -79.5t49 -119q6 -33 6 -68q0 -38 -7 -78l-137 -666h-86l141 666q5 29 5 56q0 30 -6 57q-11 52 -40 91t-73 61.5t-99 22.5q-51 0 -102 -19.5t-95.5 -54t-79 -81.5 t-53.5 -103l-147 -696h-86z" />
<glyph unicode="o" horiz-adv-x="1050" d="M148 302q-8 41 -7 85q0 57 13 119q23 111 81 207t139 167.5t178 113.5t196 42q98 0 175.5 -42t126.5 -114q50 -72 66 -168q7 -40 7 -82q0 -59 -13 -124q-23 -109 -81 -204t-138 -167t-175 -113.5t-194 -41.5q-98 0 -177 41.5t-129 113.5t-68 167zM235 335 q13 -81 54 -140.5t105.5 -94t146.5 -34.5q80 0 157.5 34.5t143 94t114 140.5t66.5 171q12 56 12 107q0 34 -5 66q-13 81 -53 141.5t-103.5 95t-143.5 34.5q-82 0 -162 -34.5t-145.5 -95t-113.5 -141.5t-68 -173q-10 -52 -10 -101q0 -36 5 -70z" />
<glyph unicode="p" horiz-adv-x="1036" d="M0 -399l262 1235q8 47 14 86q4 35 7.5 64.5t-0.5 35.5h102l-14 -61q59 35 145 58t180 23q102 -2 183.5 -44t132.5 -112.5t70 -165.5q8 -42 8 -87q0 -57 -13 -117q-25 -111 -83 -208t-140 -168.5t-181.5 -113.5t-201.5 -42q-90 0 -167 22.5t-122 56.5l-98 -462h-84z M205 178q0 -23 23.5 -42t61.5 -33.5t89 -23.5t110 -11q84 2 166 37.5t150.5 96t118 141.5t67.5 173q10 51 10 98q0 37 -6 72q-14 80 -57 139.5t-109.5 94t-150.5 34.5q-63 0 -121.5 -9t-103.5 -25.5t-74 -38t-35 -45.5z" />
<glyph unicode="q" horiz-adv-x="1050" d="M186 333q-8 42 -8 86q0 53 12 109q23 104 80.5 196.5t136 162t174 109.5t191.5 40q92 0 166 -19.5t117 -53.5l12 49h82l-301 -1411h-82l106 499q-63 -39 -143 -59.5t-172 -20.5h6h-6q-96 2 -174 43t-128 110t-69 160zM268 364q15 -77 57 -134.5t105.5 -91.5t142.5 -36 q119 0 210 32t112 77l133 625q6 25 -12.5 46t-55 37.5t-88 25.5t-110.5 9h-6q-80 0 -159 -33.5t-144.5 -91t-113.5 -135.5t-67 -166q-10 -49 -10 -94q0 -36 6 -70z" />
<glyph unicode="r" horiz-adv-x="571" d="M94 0l197 926q6 35 10 65.5t0 34.5h96l-32 -152q66 78 147.5 120t169.5 42q10 0 23.5 -1t23.5 -5l-37 -84q-10 4 -19 4h-20q-51 0 -101 -19.5t-94 -54t-78 -81.5t-54 -103l-146 -692h-86z" />
<glyph unicode="s" horiz-adv-x="854" d="M133 117l76 51q35 -43 96.5 -71.5t138.5 -28.5q53 0 102.5 13t88.5 37.5t65.5 59.5t36.5 76q3 16 3 32q0 22 -6 43q-11 36 -38.5 66.5t-68.5 52t-95 29.5q-68 10 -122 39t-88 69t-48 89q-8 28 -8 58q0 22 4 44q12 57 50 105.5t92.5 82t120 52t135.5 18.5q96 0 173 -35.5 t120 -91.5l-82 -51q-35 45 -98.5 68.5t-139.5 23.5q-53 0 -100 -13t-85 -35.5t-63.5 -55.5t-34.5 -72q-3 -15 -3 -30q1 -22 7 -42q12 -34 39 -64t69 -50.5t95 -28.5q68 -10 121 -39t87 -68q35 -40 49 -90q8 -27 7 -55q0 -25 -6 -51q-12 -61 -50 -110.5t-91 -85t-117.5 -55 t-132.5 -19.5q-96 0 -178 34.5t-121 98.5z" />
<glyph unicode="t" horiz-adv-x="696" d="M262 0q35 176 72 344q14 72 31.5 148.5t33 152.5t30.5 146.5t28 130.5h-156l18 88h152l86 405h86l-86 -405h277l-19 -88h-276l-195 -922h-82z" />
<glyph unicode="u" horiz-adv-x="921" d="M176 212q-5 30 -5 61q0 41 9 85l-4 11l137 651h84l-137 -651l2 -11q-6 -31 -6 -60q0 -26 5 -51q11 -52 41 -92t74 -62.5t99 -22.5q51 0 101.5 20.5t94.5 55t76.5 81.5t51.5 101l147 696h86l-196 -926q-8 -37 -11.5 -65.5t0.5 -32.5h-96l19 94l10 49 q-59 -72 -143.5 -116.5t-172.5 -44.5q-72 0 -127 29.5t-91 80.5t-48 120z" />
<glyph unicode="v" horiz-adv-x="1024" d="M268 1024h92l175 -905l557 905h98l-635 -1024h-92z" />
<glyph unicode="w" horiz-adv-x="1443" d="M258 1024h92l174 -905l250 405l-94 500h98l168 -905l557 905h99l-635 -1024l-93 6l-73 400l-256 -406l-92 6z" />
<glyph unicode="x" horiz-adv-x="909" d="M68 0l436 530l-209 494h108l172 -422l359 422h106l-426 -510l209 -514h-102l-186 442l-365 -442h-102z" />
<glyph unicode="y" horiz-adv-x="1095" d="M25 -399l28 88q4 -4 7 -6t8 -7h4q10 0 22 -1t25 -1q72 0 150.5 48.5t133.5 140.5l125 203l-188 970h92l162 -864l524 864h92l-598 -964l-141 -240l-8 -18q-72 -109 -171 -166.5t-196 -57.5q-35 0 -71 11z" />
<glyph unicode="z" horiz-adv-x="925" d="M94 0l19 88l819 848h-633l18 88h746l-19 -88l-819 -848h639l-18 -88h-752z" />
<glyph unicode="{" horiz-adv-x="456" d="M231 684l19 86h41q39 0 70.5 26.5t39.5 65.5l99 461v4l2 6q14 37 54 59.5t85 22.5l-18 -88q-35 0 -35 -4l-105 -485q-14 -27 -42.5 -47.5t-59.5 -20.5l-19 -86q31 0 51.5 -17.5t24.5 -48.5l-112 -522q0 -10 32 -10l-16 -86q-18 0 -38.5 7t-36 19.5t-25 30t-4.5 39.5 l106 496q8 41 -12.5 66.5t-59.5 25.5h-41z" />
<glyph unicode="|" horiz-adv-x="268" d="M117 2l311 1466h53l-311 -1466h-53z" />
<glyph unicode="}" horiz-adv-x="385" d="M59 0l17 86q16 0 27.5 3t15.5 7l112 522q12 31 38 48.5t57 17.5l22 86q-35 0 -52 20.5t-20 47.5l105 485q-6 4 -41 4l18 88q53 0 81 -23.5t26 -58.5l2 -6v-4l-98 -461q-8 -39 9 -65.5t54 -26.5h43l-18 -86h-43q-37 0 -66 -25.5t-37 -66.5l-106 -496q-4 -20 -19.5 -37.5 t-36 -31t-45 -20.5t-45.5 -7z" />
<glyph unicode="~" horiz-adv-x="710" d="M207 655q41 25 93 38.5t106 13.5q31 0 54 -6.5t44.5 -14.5t45 -14t52.5 -6q47 0 92 11t76 34l16 -62q-41 -25 -91 -39t-103 -14q-74 0 -121 29q-35 12 -78 12q-102 0 -166 -45z" />
<glyph unicode="&#xa1;" horiz-adv-x="327" d="M129 0l254 1204h74l-254 -1204h-74zM410 1374q4 20 20 34.5t37 14.5q20 0 31.5 -14t7.5 -35q-4 -20 -21.5 -33.5t-38.5 -13.5q-23 0 -31.5 13.5t-4.5 33.5z" />
<glyph unicode="&#xa2;" horiz-adv-x="978" d="M149.5 314.5q-16.5 91.5 6.5 193.5t77 193.5t128.5 162t165.5 114.5t186 54l28 139h97l-29 -139q86 -10 154.5 -52t111.5 -103l-74 -64q-35 53 -88 88t-122 45l-187 -876q70 10 136.5 42.5t125.5 86.5l49 -60q-76 -63 -158.5 -103t-170.5 -50l-29 -140h-96l28 140 q-90 8 -161.5 52t-116.5 114.5t-61.5 162zM236 348q12 -76 46.5 -134t93 -97t132.5 -47l186 876q-78 -10 -151.5 -47t-134 -95.5t-104.5 -134t-62 -161.5q-18 -84 -6 -160z" />
<glyph unicode="&#xa3;" horiz-adv-x="1138" d="M182 616l19 86h245l152 713h86l-152 -713h375l-18 -86h-375l-113 -530h691l-17 -86h-776l129 616h-246z" />
<glyph unicode="&#xa5;" horiz-adv-x="1394" d="M373 1415h116l359 -692l657 692h115l-743 -774l-17 -80h299l-20 -90h-299l-17 -78h299l-18 -90h-299l-64 -303h-88l64 303h-299l18 90h299l17 78h-299l20 90h299l16 80z" />
<glyph unicode="&#xa6;" horiz-adv-x="268" d="M117 2l149 703h53l-149 -703h-53zM295 840l133 628h53l-133 -628h-53z" />
<glyph unicode="&#xa7;" horiz-adv-x="729" d="M115 31l51 71q74 -37 149 -36q82 0 152 43t88 122q-33 -12 -65.5 -17t-65.5 -5q-47 0 -94 11t-90 36l53 76q74 -39 153 -39q29 0 55.5 5t51.5 15q-10 47 -44 89t-87 71q-98 51 -144.5 139t-25.5 179q23 109 121 172q0 25 6 53q12 55 44 99t76 75t98 46t112 15 q100 0 190 -45l-55 -82q-37 23 -78 32t-80 9q-78 0 -141.5 -40t-79.5 -111q0 -2 -1 -4t-1 -4q55 18 119 18q94 0 190 -45l-53 -82q-39 23 -79 32t-81 9q-51 0 -92 -14q16 -41 49 -82t86 -70q96 -51 140 -137t24 -178q-10 -53 -44 -98.5t-79 -79.5q0 -12 -1 -24.5t-3 -23.5 q-12 -59 -47 -105t-81 -79t-100.5 -49t-109.5 -16q-100 0 -186 49zM338 782q-14 -63 22.5 -128.5t114.5 -106.5q59 -31 99 -78t57 -100q6 6 18 22q25 35 31 70q14 66 -21.5 133.5t-113.5 107.5q-59 29 -98 74t-58 98q-20 -16 -33.5 -41.5t-17.5 -50.5z" />
<glyph unicode="&#xa8;" horiz-adv-x="538" d="M362 1331q4 23 25 39t45 16q23 0 38 -16t11 -39t-26.5 -39t-44.5 -16q-25 0 -38.5 16t-9.5 39zM637 1331q4 23 24.5 39t45.5 16q23 0 38 -16t11 -39t-26.5 -39t-45.5 -16q-25 0 -38 16t-9 39z" />
<glyph unicode="&#xaa;" horiz-adv-x="366" d="M215 768q10 47 54 81t102 34h71l2 12q8 35 -5 62.5t-40 27.5t-49 -2t-47 -10l2 51q45 12 105 12q47 0 70.5 -39t13.5 -102q-4 -18 -9 -37q-8 -31 -18 -78q-8 -39 -9 -76.5t7 -48.5h-70l2 13q-35 -20 -80 -21q-53 0 -82.5 35t-19.5 86zM266 768q-4 -27 13.5 -47.5 t48.5 -20.5q29 0 57.5 20.5t32.5 47.5l14 66h-76q-31 0 -58.5 -21.5t-31.5 -44.5z" />
<glyph unicode="&#xab;" horiz-adv-x="1089" d="M182 569l637 457l43 -65l-561 -402l295 -473l-78 -57zM530 569l637 457l43 -65l-561 -402l295 -473l-78 -57z" />
<glyph unicode="&#xac;" horiz-adv-x="1355" d="M236 707l18 86h1190l-98 -459h-86l79 373h-1103z" />
<glyph unicode="&#xad;" horiz-adv-x="862" d="M205 559l16 86h707l-17 -86h-706z" />
<glyph unicode="&#xb0;" horiz-adv-x="512" d="M313 1221q18 88 89 145t161 57q80 0 125 -57t27 -145q-8 -41 -30.5 -76t-55.5 -61.5t-72 -42t-78 -15.5q-90 0 -136 57.5t-30 137.5zM371 1221q-10 -53 25.5 -97.5t95.5 -44.5q25 0 51 12.5t49.5 32t40 45t22.5 52.5q6 29 0 56.5t-20 49t-35.5 33.5t-46.5 12 q-29 0 -58.5 -12t-55 -33.5t-44 -49t-24.5 -56.5z" />
<glyph unicode="&#xb1;" horiz-adv-x="925" d="M178 315l19 86h706l-18 -86h-707zM313 942l19 86h309l66 309h86l-66 -309h311l-18 -86h-311l-66 -311h-86l66 311h-310z" />
<glyph unicode="&#xb2;" horiz-adv-x="573" d="M207 649l12 62l393 354q29 25 49.5 58.5t26.5 62.5q14 72 -30 123t-113 51q-35 0 -73 -15.5t-79 -48.5l-39 52q47 35 97.5 55t105.5 20q51 0 91 -18.5t65.5 -51t36 -75.5t0.5 -92q-10 -47 -41 -93t-60 -75l-338 -307h336l-12 -62h-428z" />
<glyph unicode="&#xb3;" horiz-adv-x="542" d="M193 725l47 41h16q18 -29 52 -47.5t73 -18.5q31 0 63.5 12.5t61.5 33t49 48t27 58.5q12 59 -26 104t-95 52h-111l15 63h110q31 2 60.5 14.5t56 32t45 45t25.5 51.5q6 27 -3.5 52.5t-29 45t-47 31t-60.5 11.5q-39 0 -82 -16.5t-82 -51.5l-36 49q92 80 213 80 q98 0 154 -57.5t40 -143.5q-29 -125 -154 -176q39 -31 60.5 -81t9.5 -105q-10 -45 -35.5 -84t-63.5 -67.5t-84 -45t-93 -16.5q-61 0 -105.5 22.5t-70.5 63.5z" />
<glyph unicode="&#xb4;" horiz-adv-x="428" d="M330 1133l174 178h135l-262 -178h-47z" />
<glyph unicode="&#xb6;" horiz-adv-x="782" d="M281.5 948.5q-13.5 61.5 3.5 130.5q14 70 53 131.5t94 106.5t122 71.5t136 26.5h160l-299 -1415h-160l156 741q-70 0 -125 27t-91 73t-49.5 107.5zM367 988q8 -46 30.5 -80t59.5 -54t84 -20l108 505q-47 0 -92 -19.5t-83 -53t-65.5 -79.5t-39.5 -100q-10 -53 -2 -99z M600 4l299 1409h82l-299 -1409h-82z" />
<glyph unicode="&#xb7;" horiz-adv-x="460" d="M264 643q10 39 48 70.5t83 31.5q43 0 71 -31.5t17 -70.5q-8 -39 -48 -69.5t-83 -30.5q-45 0 -70.5 30.5t-17.5 69.5z" />
<glyph unicode="&#xb9;" horiz-adv-x="538" d="M330 1202l303 213h86l-129 -614h-86l106 504l-231 -162z" />
<glyph unicode="&#xba;" horiz-adv-x="475" d="M231 831q18 90 84 147.5t146 57.5q72 0 111.5 -57t21.5 -148q-8 -41 -29.5 -75.5t-51.5 -61t-64.5 -42t-71.5 -15.5q-80 0 -121 57t-25 137zM283 831q-10 -53 20.5 -97t83.5 -44q23 0 47.5 12.5t46 32t38 45t22.5 51.5q6 31 1 59t-17.5 49.5t-32 33.5t-41.5 12 q-27 0 -53.5 -12t-50 -33.5t-41 -49.5t-23.5 -59z" />
<glyph unicode="&#xbb;" horiz-adv-x="1073" d="M158 86l499 473l-393 402l72 65l444 -457l-569 -540zM506 86l500 473l-394 402l72 65l444 -457l-569 -540z" />
<glyph unicode="&#xbc;" horiz-adv-x="782" d="M268 930l152 106h43l-127 -600h-43l115 545l-115 -80zM379 260l10 43l322 404l32 -21l-305 -383h211l33 158h43l-33 -158h101l-11 -43h-100l-53 -260h-43l53 260h-260z" />
<glyph unicode="&#xbd;" horiz-adv-x="727" d="M244 932l151 106h43l-127 -602h-43l117 547l-117 -80zM281 0l8 41l368 334q25 23 44.5 53.5t27.5 63.5q16 76 -25.5 126t-117.5 50q-74 0 -135 -50l-25 31q37 29 79 45.5t89 16.5q45 0 83 -17.5t61.5 -47.5t32.5 -69.5t1 -84.5q-10 -45 -35.5 -82t-58.5 -66l-332 -303 h330l-8 -41h-387z" />
<glyph unicode="&#xbe;" horiz-adv-x="937" d="M150 389l36 29q16 -27 49 -43.5t74 -16.5q37 0 71 12.5t61.5 34t48 49t26.5 60.5q8 43 -6 75t-46 52.5t-76 27.5t-93 -1l8 43h94q70 4 125.5 45t67.5 96q12 61 -29 103t-112 42q-88 0 -152 -57l-25 31q80 68 185 67q45 0 80.5 -14t60.5 -40t35 -59.5t2 -72.5 q-12 -53 -55 -97t-101 -67q47 -25 69.5 -71t10.5 -103q-10 -41 -34.5 -78t-59.5 -63.5t-78 -42t-88 -15.5q-51 0 -89 20.5t-60 53.5zM537 264l8 43l321 404l33 -21l-303 -383h209l35 158h43l-35 -158h102l-8 -43h-102l-56 -260h-43l56 260h-260z" />
<glyph unicode="&#xbf;" horiz-adv-x="884" d="M174 217q-14 70 2 150q16 78 60.5 147.5t105.5 122.5t135 85t148 32h114l-53 661h88l53 -661l-18 -88h-203q-59 -2 -115.5 -26t-103.5 -64.5t-81 -94t-46 -114.5t-1 -115.5t42 -95.5t79 -64.5t109 -23.5q82 0 155 41t128 106l47 -63q-66 -76 -158 -124t-192 -48 q-78 0 -139.5 30.5t-101.5 83.5t-54 123zM666 1610q4 27 23.5 43t45.5 16q23 0 34 -16t7 -43q-6 -25 -24.5 -41.5t-40.5 -16.5q-27 0 -39.5 16.5t-5.5 41.5z" />
<glyph unicode="&#xc0;" d="M66 0l821 1415h71l224 -1415h-90l-95 588h-497l-344 -588h-90zM547 674h436l-92 590zM754 1702h135l96 -178h-47z" />
<glyph unicode="&#xc1;" d="M66 0l821 1415h71l224 -1415h-90l-95 588h-497l-344 -588h-90zM547 674h436l-92 590zM918 1524l174 178h135l-262 -178h-47z" />
<glyph unicode="&#xc2;" d="M66 0l821 1415h71l224 -1415h-90l-95 588h-497l-344 -588h-90zM547 674h436l-92 590z" />
<glyph unicode="&#xc3;" d="M66 0l821 1415h71l224 -1415h-90l-95 588h-497l-344 -588h-90zM547 674h436l-92 590zM709 1638q39 23 86 36.5t100 13.5q29 0 50.5 -6.5t42 -12.5l41 -12t46.5 -6q47 0 89 10t71 31l16 -58q-39 -23 -86 -36t-100 -13q-66 0 -109 25q-35 12 -75 12q-45 0 -85 -11.5 t-69 -29.5z" />
<glyph unicode="&#xc4;" d="M66 0l821 1415h71l224 -1415h-90l-95 588h-497l-344 -588h-90zM547 674h436l-92 590zM745 1562q4 23 25 39t45 16q23 0 38 -16t11 -39t-26.5 -39t-44.5 -16q-25 0 -38.5 16t-9.5 39zM1020 1562q4 23 24.5 39t45.5 16q23 0 38 -16t11 -39t-26.5 -39t-45.5 -16 q-25 0 -38 16t-9 39z" />
<glyph unicode="&#xc6;" horiz-adv-x="2213" d="M66 0l821 1415h538h783l-17 -82h-731l-114 -536h624l-18 -86h-625l-133 -625h731l-16 -86h-817l125 588h-717l-344 -588h-90zM547 674h686l160 659h-469z" />
<glyph unicode="&#xc7;" horiz-adv-x="1298" d="M244.5 448.5q-15.5 118.5 13.5 251.5q33 154 112 286t187.5 229.5t237.5 152.5t262 55q127 0 229.5 -51t167.5 -143q0 -2 1 -2t1 -2l-72 -58l-2 2q-59 80 -146 126t-196 46q-117 0 -230.5 -51t-208.5 -139t-163.5 -204t-95.5 -247q-27 -127 -8.5 -242.5t76 -203.5 t148.5 -139.5t210 -51.5q109 0 214 45.5t198 122.5l49 -57q-115 -98 -240 -145t-260 -47l-29 -48q8 0 24.5 -8t31 -23.5t23.5 -37t3 -45.5q-6 -29 -33.5 -58.5t-93.5 -62.5l-55 51q8 0 24.5 3t35 12.5t35 22.5t20.5 36q4 18 -5.5 30.5t-24.5 19.5t-31.5 10t-28.5 3h-17 l25 105q-106 25 -188.5 88t-133.5 156.5t-66.5 212z" />
<glyph unicode="&#xc8;" horiz-adv-x="993" d="M92 0l299 1415h817l-16 -82h-731l-115 -536h625l-19 -86h-624l-133 -625h731l-17 -86h-817zM612 1702h135l96 -178h-47z" />
<glyph unicode="&#xc9;" horiz-adv-x="993" d="M92 0l299 1415h817l-16 -82h-731l-115 -536h625l-19 -86h-624l-133 -625h731l-17 -86h-817zM748 1524l174 178h135l-262 -178h-47z" />
<glyph unicode="&#xcb;" horiz-adv-x="993" d="M92 0l299 1415h817l-16 -82h-731l-115 -536h625l-19 -86h-624l-133 -625h731l-17 -86h-817zM630 1564q4 23 25 39t45 16q23 0 38 -16t11 -39t-26.5 -39t-44.5 -16q-25 0 -38.5 16t-9.5 39zM905 1564q4 23 24.5 39t45.5 16q23 0 38 -16t11 -39t-26.5 -39t-45.5 -16 q-25 0 -38 16t-9 39z" />
<glyph unicode="&#xcc;" horiz-adv-x="268" d="M118 0l299 1415h86l-299 -1415h-86zM313 1702h135l96 -178h-47z" />
<glyph unicode="&#xcd;" horiz-adv-x="315" d="M102 0l299 1415h86l-299 -1415h-86zM449 1524l174 178h135l-262 -178h-47z" />
<glyph unicode="&#xce;" horiz-adv-x="282" d="M102 0l299 1415h86l-299 -1415h-86z" />
<glyph unicode="&#xcf;" horiz-adv-x="282" d="M102 0l299 1415h86l-299 -1415h-86zM280 1562q4 23 25 39t45 16q23 0 38 -16t11 -39t-26.5 -39t-44.5 -16q-25 0 -38.5 16t-9.5 39zM555 1562q4 23 24.5 39t45.5 16q23 0 38 -16t11 -39t-26.5 -39t-45.5 -16q-25 0 -38 16t-9 39z" />
<glyph unicode="&#xd0;" horiz-adv-x="1337" d="M209 561l18 86h140l161 768h523q102 -2 181 -57t125 -150.5t57 -223.5t-19 -273q-31 -145 -95.5 -273.5t-150.5 -223.5t-187.5 -151.5t-205.5 -58.5v-4h-527l119 561h-139zM332 86h440l2 4q84 2 168 52.5t156.5 134t128 195.5t82.5 239q27 125 18.5 237.5t-45.5 196.5 t-100.5 133t-149.5 51h-436l-143 -682h356l-18 -86h-357z" />
<glyph unicode="&#xd1;" horiz-adv-x="1099" d="M98 0l299 1415h84l469 -1243l264 1243h86l-299 -1415h-86l-469 1249l-264 -1249h-84zM617 1600q70 33 149 33q41 0 70 -9.5t54.5 -20.5t53 -20.5t68.5 -9.5q74 0 125 29l10 -61q-66 -33 -149 -33q-89 0 -144 39q-41 20 -100 20q-35 0 -68.5 -7t-56.5 -22z" />
<glyph unicode="&#xd2;" horiz-adv-x="1413" d="M201.5 420q-23.5 133 9.5 287q31 150 109.5 279.5t186 227t236.5 153.5t263 56q137 0 243.5 -56t172 -152.5t86 -227.5t-10.5 -280q-35 -160 -113.5 -294.5t-195.5 -232.5q-109 -96 -233 -147t-255 -51q-129 0 -234.5 55t-173 152.5t-91 230.5zM288.5 458 q18.5 -116 75 -202t147.5 -136t208 -50q119 0 232.5 50t206.5 136t160.5 201.5t96.5 249.5q29 139 7.5 256.5t-87.5 203.5q-55 80 -145 124t-203 44q-115 0 -226.5 -49t-204.5 -134t-161.5 -199.5t-95.5 -245.5q-29 -133 -10.5 -249zM799 1702h135l96 -178h-47z" />
<glyph unicode="&#xd3;" horiz-adv-x="1413" d="M201.5 420q-23.5 133 9.5 287q31 150 109.5 279.5t186 227t236.5 153.5t263 56q137 0 243.5 -56t172 -152.5t86 -227.5t-10.5 -280q-35 -160 -113.5 -294.5t-195.5 -232.5q-109 -96 -233 -147t-255 -51q-129 0 -234.5 55t-173 152.5t-91 230.5zM288.5 458 q18.5 -116 75 -202t147.5 -136t208 -50q119 0 232.5 50t206.5 136t160.5 201.5t96.5 249.5q29 139 7.5 256.5t-87.5 203.5q-55 80 -145 124t-203 44q-115 0 -226.5 -49t-204.5 -134t-161.5 -199.5t-95.5 -245.5q-29 -133 -10.5 -249zM1030 1524l174 178h135l-262 -178h-47z " />
<glyph unicode="&#xd5;" horiz-adv-x="1413" d="M201.5 420q-23.5 133 9.5 287q31 150 109.5 279.5t186 227t236.5 153.5t263 56q137 0 243.5 -56t172 -152.5t86 -227.5t-10.5 -280q-35 -160 -113.5 -294.5t-195.5 -232.5q-109 -96 -233 -147t-255 -51q-129 0 -234.5 55t-173 152.5t-91 230.5zM288.5 458 q18.5 -116 75 -202t147.5 -136t208 -50q119 0 232.5 50t206.5 136t160.5 201.5t96.5 249.5q29 139 7.5 256.5t-87.5 203.5q-55 80 -145 124t-203 44q-115 0 -226.5 -49t-204.5 -134t-161.5 -199.5t-95.5 -245.5q-29 -133 -10.5 -249zM772 1602q70 33 149 33q41 0 70 -9.5 t54.5 -20.5t53 -20.5t68.5 -9.5q74 0 125 29l10 -61q-66 -33 -149 -33q-89 0 -144 39q-41 20 -100 20q-35 0 -68.5 -7t-56.5 -22z" />
<glyph unicode="&#xd6;" horiz-adv-x="1413" d="M201.5 420q-23.5 133 9.5 287q31 150 109.5 279.5t186 227t236.5 153.5t263 56q137 0 243.5 -56t172 -152.5t86 -227.5t-10.5 -280q-35 -160 -113.5 -294.5t-195.5 -232.5q-109 -96 -233 -147t-255 -51q-129 0 -234.5 55t-173 152.5t-91 230.5zM288.5 458 q18.5 -116 75 -202t147.5 -136t208 -50q119 0 232.5 50t206.5 136t160.5 201.5t96.5 249.5q29 139 7.5 256.5t-87.5 203.5q-55 80 -145 124t-203 44q-115 0 -226.5 -49t-204.5 -134t-161.5 -199.5t-95.5 -245.5q-29 -133 -10.5 -249zM841 1564q4 23 25 39t45 16q23 0 38 -16 t11 -39t-26.5 -39t-44.5 -16q-25 0 -38.5 16t-9.5 39zM1116 1564q4 23 24.5 39t45.5 16q23 0 38 -16t11 -39t-26.5 -39t-45.5 -16q-25 0 -38 16t-9 39z" />
<glyph unicode="&#xd7;" horiz-adv-x="751" d="M172 424l266 221l-170 217l72 62l174 -219l264 219l49 -60l-266 -219l172 -221l-71 -59l-175 219l-266 -219z" />
<glyph unicode="&#xd8;" horiz-adv-x="1413" d="M194.5 497.5q-6.5 100.5 16.5 209.5q31 150 109.5 279.5t186 227t236.5 153.5t263 56q104 0 198 -34l15 26h92l-35 -61q147 -94 206.5 -263t14.5 -384q-35 -160 -113.5 -294.5t-195.5 -232.5q-109 -96 -233 -147t-255 -51q-53 0 -102 10t-94 26l-8 -18h-95l31 55 q-68 41 -120 107.5t-81.5 150.5t-36 184.5zM283 526.5q4 -86.5 28.5 -160t66.5 -133t101 -98.5l676 1170q-78 30 -168 30q-115 0 -226.5 -49t-204.5 -134t-161.5 -199.5t-95.5 -245.5q-20 -94 -16 -180.5zM551 100q76 -31 168 -30q119 0 232.5 50t206.5 136t160.5 201.5 t96.5 249.5q29 139 7.5 256.5t-87.5 203.5q-23 31 -49 56.5t-59 46.5z" />
<glyph unicode="&#xd9;" horiz-adv-x="1224" d="M164 354l225 1061h92l-225 -1061q-8 -59 16.5 -111.5t74.5 -90t124 -60t162 -22.5q84 0 165 22.5t146.5 60t111.5 90t62 111.5l225 1061h87l-226 -1061q-18 -76 -74.5 -143.5t-136.5 -118.5t-178 -80.5t-201 -29.5q-106 0 -194 29.5t-148.5 80.5t-89 119t-18.5 143z M741 1702h135l96 -178h-47z" />
<glyph unicode="&#xda;" horiz-adv-x="1224" d="M164 354l225 1061h92l-225 -1061q-8 -59 16.5 -111.5t74.5 -90t124 -60t162 -22.5q84 0 165 22.5t146.5 60t111.5 90t62 111.5l225 1061h87l-226 -1061q-18 -76 -74.5 -143.5t-136.5 -118.5t-178 -80.5t-201 -29.5q-106 0 -194 29.5t-148.5 80.5t-89 119t-18.5 143z M910 1524l174 178h135l-262 -178h-47z" />
<glyph unicode="&#xdc;" horiz-adv-x="1224" d="M164 354l225 1061h92l-225 -1061q-8 -59 16.5 -111.5t74.5 -90t124 -60t162 -22.5q84 0 165 22.5t146.5 60t111.5 90t62 111.5l225 1061h87l-226 -1061q-18 -76 -74.5 -143.5t-136.5 -118.5t-178 -80.5t-201 -29.5q-106 0 -194 29.5t-148.5 80.5t-89 119t-18.5 143z M747 1562q4 23 25 39t45 16q23 0 38 -16t11 -39t-26.5 -39t-44.5 -16q-25 0 -38.5 16t-9.5 39zM1022 1562q4 23 24.5 39t45.5 16q23 0 38 -16t11 -39t-26.5 -39t-45.5 -16q-25 0 -38 16t-9 39z" />
<glyph unicode="&#xdd;" horiz-adv-x="1394" d="M373 1415h116l359 -692l657 692h115l-743 -774l-136 -641h-88l135 641zM1012 1524l174 178h135l-262 -178h-47z" />
<glyph unicode="&#xde;" horiz-adv-x="1095" d="M43 -401l387 1818h86l-98 -456q63 35 145 57t174 22q102 -2 184.5 -44t133.5 -112.5t69.5 -165.5t-4.5 -204q-25 -111 -83 -208t-140 -168.5t-181.5 -113.5t-201.5 -42q-94 0 -162.5 24.5t-126.5 54.5l-98 -462h-84zM256 195q-8 -25 10.5 -47.5t56 -40t92 -27.5 t117.5 -12q82 2 164 37.5t149.5 95t118 140.5t68.5 171q18 88 3 168t-58 140.5t-109.5 96t-148.5 35.5q-59 0 -114.5 -8t-99.5 -23.5t-76 -36t-42 -42.5z" />
<glyph unicode="&#xdf;" horiz-adv-x="1064" d="M35 -354l375 1769h86h366q78 -2 140.5 -30.5t102.5 -75.5t56.5 -109.5t1.5 -132.5q-23 -104 -95.5 -187t-174.5 -130q98 -45 140 -139.5t18 -209.5q-16 -80 -62.5 -151.5t-113 -125.5t-146.5 -86t-166 -34h-174l-65 82h256q68 2 131 28.5t115.5 69.5t89 98.5t49.5 118.5 q12 61 -1.5 115.5t-51.5 96.5t-97 68t-139 30h-330l-225 -1065h-86zM365 797h366q61 2 118.5 23.5t104.5 57t79 85t44 104.5q12 51 0 98t-44 84t-80 58.5t-107 25.5h-37h-330z" />
<glyph unicode="&#xe0;" horiz-adv-x="831" d="M143 289q14 68 54.5 125t96.5 99t123.5 64.5t137.5 22.5h233l9 45q14 61 10 116.5t-23.5 96.5t-54.5 65.5t-84 26.5h-2q-133 0 -244 -30l-4 81q129 35 267 35h2q59 -2 107 -29.5t79 -74.5t43 -110.5t0 -135.5l-4 -20q-14 -51 -27 -109q-10 -49 -24.5 -111.5t-26.5 -126.5 q-12 -59 -23.5 -114t-19.5 -100.5t-11 -73t1 -31.5h-96l16 82q-59 -47 -128 -74.5t-142 -27.5q-68 0 -122.5 24.5t-90 66.5t-50 98t-2.5 120zM231 289q-10 -47 1.5 -87t38 -70t66.5 -47t91 -17t99 17t88 47t68 70t38 87l49 227h-233q-53 0 -103.5 -16.5t-91.5 -46 t-70.5 -71.5t-40.5 -93zM467 1311h135l96 -178h-47z" />
<glyph unicode="&#xe1;" horiz-adv-x="831" d="M143 289q14 68 54.5 125t96.5 99t123.5 64.5t137.5 22.5h233l9 45q14 61 10 116.5t-23.5 96.5t-54.5 65.5t-84 26.5h-2q-133 0 -244 -30l-4 81q129 35 267 35h2q59 -2 107 -29.5t79 -74.5t43 -110.5t0 -135.5l-4 -20q-14 -51 -27 -109q-10 -49 -24.5 -111.5t-26.5 -126.5 q-12 -59 -23.5 -114t-19.5 -100.5t-11 -73t1 -31.5h-96l16 82q-59 -47 -128 -74.5t-142 -27.5q-68 0 -122.5 24.5t-90 66.5t-50 98t-2.5 120zM231 289q-10 -47 1.5 -87t38 -70t66.5 -47t91 -17t99 17t88 47t68 70t38 87l49 227h-233q-53 0 -103.5 -16.5t-91.5 -46 t-70.5 -71.5t-40.5 -93zM606 1133l174 178h135l-262 -178h-47z" />
<glyph unicode="&#xe2;" horiz-adv-x="831" d="M143 289q14 68 54.5 125t96.5 99t123.5 64.5t137.5 22.5h233l9 45q14 61 10 116.5t-23.5 96.5t-54.5 65.5t-84 26.5h-2q-133 0 -244 -30l-4 81q129 35 267 35h2q59 -2 107 -29.5t79 -74.5t43 -110.5t0 -135.5l-4 -20q-14 -51 -27 -109q-10 -49 -24.5 -111.5t-26.5 -126.5 q-12 -59 -23.5 -114t-19.5 -100.5t-11 -73t1 -31.5h-96l16 82q-59 -47 -128 -74.5t-142 -27.5q-68 0 -122.5 24.5t-90 66.5t-50 98t-2.5 120zM231 289q-10 -47 1.5 -87t38 -70t66.5 -47t91 -17t99 17t88 47t68 70t38 87l49 227h-233q-53 0 -103.5 -16.5t-91.5 -46 t-70.5 -71.5t-40.5 -93zM440 1163l267 217l174 -219l-64 -51l-133 170l-205 -170z" />
<glyph unicode="&#xe3;" horiz-adv-x="831" d="M143 289q14 68 54.5 125t96.5 99t123.5 64.5t137.5 22.5h233l9 45q14 61 10 116.5t-23.5 96.5t-54.5 65.5t-84 26.5h-2q-133 0 -244 -30l-4 81q129 35 267 35h2q59 -2 107 -29.5t79 -74.5t43 -110.5t0 -135.5l-4 -20q-14 -51 -27 -109q-10 -49 -24.5 -111.5t-26.5 -126.5 q-12 -59 -23.5 -114t-19.5 -100.5t-11 -73t1 -31.5h-96l16 82q-59 -47 -128 -74.5t-142 -27.5q-68 0 -122.5 24.5t-90 66.5t-50 98t-2.5 120zM231 289q-10 -47 1.5 -87t38 -70t66.5 -47t91 -17t99 17t88 47t68 70t38 87l49 227h-233q-53 0 -103.5 -16.5t-91.5 -46 t-70.5 -71.5t-40.5 -93zM385 1198q37 23 87 38t103 15t88 -16t82 -16t93.5 12t76.5 35l17 -58q-39 -27 -90 -41t-103 -14q-63 0 -104 23q-35 10 -70 10q-43 0 -87 -12.5t-72 -32.5z" />
<glyph unicode="&#xe4;" horiz-adv-x="831" d="M143 289q14 68 54.5 125t96.5 99t123.5 64.5t137.5 22.5h233l9 45q14 61 10 116.5t-23.5 96.5t-54.5 65.5t-84 26.5h-2q-133 0 -244 -30l-4 81q129 35 267 35h2q59 -2 107 -29.5t79 -74.5t43 -110.5t0 -135.5l-4 -20q-14 -51 -27 -109q-10 -49 -24.5 -111.5t-26.5 -126.5 q-12 -59 -23.5 -114t-19.5 -100.5t-11 -73t1 -31.5h-96l16 82q-59 -47 -128 -74.5t-142 -27.5q-68 0 -122.5 24.5t-90 66.5t-50 98t-2.5 120zM231 289q-10 -47 1.5 -87t38 -70t66.5 -47t91 -17t99 17t88 47t68 70t38 87l49 227h-233q-53 0 -103.5 -16.5t-91.5 -46 t-70.5 -71.5t-40.5 -93zM522 1331q4 23 24.5 39t45.5 16q23 0 38 -16t11 -39t-26.5 -39t-45.5 -16q-25 0 -38 16t-9 39zM797 1331q4 23 24.5 39t44.5 16q23 0 38.5 -16t10.5 -39q-4 -23 -26.5 -39t-44.5 -16q-25 0 -38 16t-9 39z" />
<glyph unicode="&#xe6;" horiz-adv-x="1521" d="M143 289q14 63 52 120.5t92.5 99.5t120 66.5t133.5 24.5h235q10 39 27 66q12 59 5 110t-28.5 89t-56.5 60.5t-78 24.5h-2q-133 0 -244 -30l-4 81q129 35 267 35h2q92 -4 151 -63.5t76 -155.5q78 100 177 160.5t202 60.5q86 0 150.5 -40t104.5 -109.5t51 -163.5t-13 -205 l-11 -49h-710l-19 -94q2 -68 21.5 -124t53.5 -98t81 -65.5t106 -23.5q33 0 71 7t76 18t72.5 24.5t63.5 25.5l18 -75q-59 -29 -124.5 -49.5t-137.5 -32.5h-2q-12 -2 -25.5 -2h-27.5q-98 0 -173 50t-116 136q-14 -70 -21 -117t-1 -51h-96l16 82q-59 -47 -128 -74.5t-142 -27.5 q-68 0 -122.5 24.5t-90 66.5t-50 98t-2.5 120zM231 289q-10 -47 1.5 -87t38 -70t66.5 -47t91 -17t99 17t88 47t68 70t38 87l14 63q-4 57 6 119l11 45h-230q-51 0 -99 -18.5t-87 -49t-66.5 -71.5t-38.5 -88zM862 555h627q12 82 0 154.5t-44 126t-81 84t-113 30.5 q-61 0 -122.5 -29.5t-114.5 -83t-93 -126t-59 -156.5z" />
<glyph unicode="&#xe7;" horiz-adv-x="1009" d="M179.5 321.5q-13.5 88.5 6.5 188.5q23 109 82.5 204t140 166.5t180 113.5t202.5 42q104 0 186 -43t131 -119l-72 -59q-43 61 -110.5 98t-153.5 37q-84 0 -166 -34.5t-149.5 -94t-115.5 -139.5t-69 -172q-18 -92 -3.5 -173t57.5 -140.5t109.5 -94t150.5 -34.5t164.5 33.5 t146.5 93.5l49 -60q-78 -66 -168 -106.5t-188 -46.5l-29 -56q8 0 24.5 -8t31 -23.5t23.5 -37t3 -45.5q-6 -29 -34.5 -60t-94.5 -65l-53 53q29 4 66.5 20.5t45.5 46.5q4 23 -4 37.5t-23.5 21.5t-32.5 10t-30 3q-4 0 -9 -1t-9 -1l27 111q-86 14 -152 60t-106.5 115.5t-54 158z " />
<glyph unicode="&#xe8;" horiz-adv-x="933" d="M160 471l8 39q25 109 77 205t122.5 167.5t153.5 113.5t167 42q86 0 150.5 -40t104.5 -109.5t51.5 -163.5t-13.5 -205l-10 -49h-723q-12 -86 0 -159.5t47 -128t88 -86t121 -31.5q33 0 70.5 7t75.5 18t73 24.5t63 25.5l19 -75q-59 -29 -125 -49.5t-137 -32.5h-2 q-12 -2 -25.5 -2h-28.5q-86 0 -153.5 37.5t-111.5 104t-61.5 156t-0.5 191.5zM266 555h641q12 82 0 154.5t-44 126t-81 84t-112 30.5q-61 0 -123 -30.5t-116 -84t-97 -126t-68 -154.5zM526 1311h135l96 -178h-47z" />
<glyph unicode="&#xe9;" horiz-adv-x="933" d="M160 471l8 39q25 109 77 205t122.5 167.5t153.5 113.5t167 42q86 0 150.5 -40t104.5 -109.5t51.5 -163.5t-13.5 -205l-10 -49h-723q-12 -86 0 -159.5t47 -128t88 -86t121 -31.5q33 0 70.5 7t75.5 18t73 24.5t63 25.5l19 -75q-59 -29 -125 -49.5t-137 -32.5h-2 q-12 -2 -25.5 -2h-28.5q-86 0 -153.5 37.5t-111.5 104t-61.5 156t-0.5 191.5zM266 555h641q12 82 0 154.5t-44 126t-81 84t-112 30.5q-61 0 -123 -30.5t-116 -84t-97 -126t-68 -154.5zM666 1133l174 178h135l-262 -178h-47z" />
<glyph unicode="&#xea;" horiz-adv-x="933" d="M160 471l8 39q25 109 77 205t122.5 167.5t153.5 113.5t167 42q86 0 150.5 -40t104.5 -109.5t51.5 -163.5t-13.5 -205l-10 -49h-723q-12 -86 0 -159.5t47 -128t88 -86t121 -31.5q33 0 70.5 7t75.5 18t73 24.5t63 25.5l19 -75q-59 -29 -125 -49.5t-137 -32.5h-2 q-12 -2 -25.5 -2h-28.5q-86 0 -153.5 37.5t-111.5 104t-61.5 156t-0.5 191.5zM266 555h641q12 82 0 154.5t-44 126t-81 84t-112 30.5q-61 0 -123 -30.5t-116 -84t-97 -126t-68 -154.5zM491 1163l267 217l174 -219l-64 -51l-133 170l-205 -170z" />
<glyph unicode="&#xeb;" horiz-adv-x="933" d="M160 471l8 39q25 109 77 205t122.5 167.5t153.5 113.5t167 42q86 0 150.5 -40t104.5 -109.5t51.5 -163.5t-13.5 -205l-10 -49h-723q-12 -86 0 -159.5t47 -128t88 -86t121 -31.5q33 0 70.5 7t75.5 18t73 24.5t63 25.5l19 -75q-59 -29 -125 -49.5t-137 -32.5h-2 q-12 -2 -25.5 -2h-28.5q-86 0 -153.5 37.5t-111.5 104t-61.5 156t-0.5 191.5zM266 555h641q12 82 0 154.5t-44 126t-81 84t-112 30.5q-61 0 -123 -30.5t-116 -84t-97 -126t-68 -154.5zM552 1331q4 23 25 39t45 16q23 0 38 -16t11 -39t-26.5 -39t-44.5 -16q-25 0 -38.5 16 t-9.5 39zM827 1331q4 23 24.5 39t45.5 16q23 0 38 -16t11 -39t-26.5 -39t-45.5 -16q-25 0 -38 16t-9 39z" />
<glyph unicode="&#xec;" horiz-adv-x="432" d="M197 0l217 1024h84l-217 -1024h-84zM311 1311h135l97 -178h-47z" />
<glyph unicode="&#xed;" horiz-adv-x="432" d="M135 0l217 1024h84l-217 -1024h-84zM346 1133l174 178h135l-262 -178h-47z" />
<glyph unicode="&#xee;" horiz-adv-x="362" d="M135 0l217 1024h84l-217 -1024h-84zM207 1163l266 217l174 -219l-63 -51l-133 170l-205 -170z" />
<glyph unicode="&#xef;" horiz-adv-x="362" d="M135 0l217 1024h84l-217 -1024h-84zM307 1331q4 23 24.5 39t45.5 16q23 0 38 -16t11 -39t-26.5 -39t-45.5 -16q-25 0 -38 16t-9 39zM500 1331q4 23 24.5 39t44.5 16q23 0 38.5 -16t10.5 -39q-4 -23 -26.5 -39t-44.5 -16q-25 0 -38 16t-9 39z" />
<glyph unicode="&#xf0;" horiz-adv-x="1001" d="M156 154l98 67q35 -70 99.5 -108.5t144.5 -38.5q68 0 132 22.5t119.5 62.5t99.5 95t71 119q55 150 92 323q4 16 7 34t7 36q-76 -86 -180.5 -136t-220.5 -50q-84 0 -154 31.5t-116 86t-64 128t-2 159.5q0 4 1 7t1 7q18 88 68.5 165t120 135.5t154.5 92t173 33.5 t158.5 -32.5t116.5 -88t64.5 -130t4.5 -160.5l-2 -6q-10 -84 -29.5 -172t-38.5 -172q-16 -82 -38.5 -161t-51.5 -153q-33 -80 -88 -147.5t-124.5 -115.5t-150.5 -74.5t-163 -26.5q-102 0 -183 47t-126 121zM371 989q-10 -68 5 -127t52 -103t91 -69.5t122 -25.5 q74 0 142.5 26.5t126 72.5t97.5 108.5t56 134.5q14 68 -1 128t-53 105t-94.5 71.5t-123.5 26.5q-74 0 -142.5 -28.5t-125 -75.5t-97.5 -110.5t-55 -133.5z" />
<glyph unicode="&#xf1;" horiz-adv-x="886" d="M82 0l197 930q8 35 10 58.5t-2 27.5h96l-18 -82l-11 -55q66 78 148 119.5t170 41.5q72 0 128 -29.5t92 -79.5t49 -119t-1 -146l-137 -666h-86l141 666q10 61 -1 113t-40 91t-73 61.5t-99 22.5q-51 0 -102 -19.5t-95.5 -54t-79 -81.5t-53.5 -103l-147 -696h-86zM430 1290 q39 23 89 36t104 13q29 0 50 -5t40.5 -12t39 -12t46.5 -5q43 0 87 12t72 33l17 -60q-39 -23 -90 -37t-103 -14q-63 0 -102 25q-35 12 -78 12q-45 0 -85 -13.5t-71 -31.5z" />
<glyph unicode="&#xf2;" horiz-adv-x="1079" d="M148.5 302q-17.5 95 5.5 204q23 111 81 207t139 167.5t178 113.5t196 42q98 0 175.5 -42t127 -113.5t66 -168t-6.5 -206.5q-23 -109 -81 -204t-138 -167t-175 -113.5t-194 -41.5q-98 0 -177 41.5t-129 113.5t-67.5 167zM235 335q13 -81 54 -140.5t105.5 -94t146.5 -34.5 q80 0 157.5 34.5t143 94t114 140.5t66.5 171q20 92 7 173t-53 141.5t-103.5 95t-143.5 34.5q-82 0 -162 -34.5t-145.5 -95t-113.5 -141.5t-68 -173q-18 -90 -5 -171zM600 1311h135l96 -178h-47z" />
<glyph unicode="&#xf3;" horiz-adv-x="1079" d="M148.5 302q-17.5 95 5.5 204q23 111 81 207t139 167.5t178 113.5t196 42q98 0 175.5 -42t127 -113.5t66 -168t-6.5 -206.5q-23 -109 -81 -204t-138 -167t-175 -113.5t-194 -41.5q-98 0 -177 41.5t-129 113.5t-67.5 167zM235 335q13 -81 54 -140.5t105.5 -94t146.5 -34.5 q80 0 157.5 34.5t143 94t114 140.5t66.5 171q20 92 7 173t-53 141.5t-103.5 95t-143.5 34.5q-82 0 -162 -34.5t-145.5 -95t-113.5 -141.5t-68 -173q-18 -90 -5 -171zM752 1133l174 178h135l-262 -178h-47z" />
<glyph unicode="&#xf4;" horiz-adv-x="1050" d="M148.5 302q-17.5 95 5.5 204q23 111 81 207t139 167.5t178 113.5t196 42q98 0 175.5 -42t127 -113.5t66 -168t-6.5 -206.5q-23 -109 -81 -204t-138 -167t-175 -113.5t-194 -41.5q-98 0 -177 41.5t-129 113.5t-67.5 167zM235 335q13 -81 54 -140.5t105.5 -94t146.5 -34.5 q80 0 157.5 34.5t143 94t114 140.5t66.5 171q20 92 7 173t-53 141.5t-103.5 95t-143.5 34.5q-82 0 -162 -34.5t-145.5 -95t-113.5 -141.5t-68 -173q-18 -90 -5 -171zM551 1163l267 217l174 -219l-64 -51l-133 170l-205 -170z" />
<glyph unicode="&#xf5;" horiz-adv-x="1050" d="M148.5 302q-17.5 95 5.5 204q23 111 81 207t139 167.5t178 113.5t196 42q98 0 175.5 -42t127 -113.5t66 -168t-6.5 -206.5q-23 -109 -81 -204t-138 -167t-175 -113.5t-194 -41.5q-98 0 -177 41.5t-129 113.5t-67.5 167zM235 335q13 -81 54 -140.5t105.5 -94t146.5 -34.5 q80 0 157.5 34.5t143 94t114 140.5t66.5 171q20 92 7 173t-53 141.5t-103.5 95t-143.5 34.5q-82 0 -162 -34.5t-145.5 -95t-113.5 -141.5t-68 -173q-18 -90 -5 -171zM537 1276q70 33 149 33q41 0 70 -9.5t54.5 -20.5t53 -20.5t68.5 -9.5q74 0 125 29l10 -61 q-66 -33 -149 -33q-89 0 -144 39q-41 20 -100 20q-35 0 -68.5 -7t-56.5 -22z" />
<glyph unicode="&#xf6;" horiz-adv-x="1079" d="M148.5 302q-17.5 95 5.5 204q23 111 81 207t139 167.5t178 113.5t196 42q98 0 175.5 -42t127 -113.5t66 -168t-6.5 -206.5q-23 -109 -81 -204t-138 -167t-175 -113.5t-194 -41.5q-98 0 -177 41.5t-129 113.5t-67.5 167zM235 335q13 -81 54 -140.5t105.5 -94t146.5 -34.5 q80 0 157.5 34.5t143 94t114 140.5t66.5 171q20 92 7 173t-53 141.5t-103.5 95t-143.5 34.5q-82 0 -162 -34.5t-145.5 -95t-113.5 -141.5t-68 -173q-18 -90 -5 -171zM636 1331q4 23 25 39t45 16q23 0 38 -16t11 -39t-26.5 -39t-44.5 -16q-25 0 -38.5 16t-9.5 39zM911 1331 q4 23 24.5 39t45.5 16q23 0 38 -16t11 -39t-26.5 -39t-45.5 -16q-25 0 -38 16t-9 39z" />
<glyph unicode="&#xf7;" horiz-adv-x="870" d="M193 559l16 86h706l-16 -86h-706zM424 287l29 131h131l-29 -131h-131zM532 793l27 131h131l-26 -131h-132z" />
<glyph unicode="&#xf8;" horiz-adv-x="1050" d="M154 506q23 111 81 207t139 167.5t178 113.5t196 42q100 0 178 -44t127 -118l-78 -57q-39 61 -102.5 97t-143.5 36q-82 0 -162 -34.5t-145.5 -95t-113.5 -141.5t-68 -173q-25 -117 4 -215l-78 -58q-43 121 -12 273zM197 166l73 55q39 -72 109 -113.5t162 -41.5 q80 0 157.5 34.5t143 94t114 140.5t66.5 171q16 70 11 132t-25 116l79 57q29 -66 35 -142.5t-12 -162.5q-23 -109 -81 -204t-138 -167t-175 -113.5t-194 -41.5q-111 0 -194.5 50t-130.5 136z" />
<glyph unicode="&#xf9;" horiz-adv-x="921" d="M176 212q-12 69 4 146l-4 11l137 651h84l-137 -651l2 -11q-12 -59 -1 -111t41 -92t74 -62.5t99 -22.5q51 0 101.5 20.5t94.5 55t76.5 81.5t51.5 101l147 696h86l-196 -926q-8 -37 -11.5 -65.5t0.5 -32.5h-96l19 94l10 49q-59 -72 -143.5 -116.5t-172.5 -44.5 q-72 0 -127 29.5t-91 80.5t-48 120zM524 1311h135l96 -178h-47z" />
<glyph unicode="&#xfa;" horiz-adv-x="921" d="M176 212q-12 69 4 146l-4 11l137 651h84l-137 -651l2 -11q-12 -59 -1 -111t41 -92t74 -62.5t99 -22.5q51 0 101.5 20.5t94.5 55t76.5 81.5t51.5 101l147 696h86l-196 -926q-8 -37 -11.5 -65.5t0.5 -32.5h-96l19 94l10 49q-59 -72 -143.5 -116.5t-172.5 -44.5 q-72 0 -127 29.5t-91 80.5t-48 120zM643 1133l174 178h135l-262 -178h-47z" />
<glyph unicode="&#xfb;" horiz-adv-x="921" d="M176 212q-12 69 4 146l-4 11l137 651h84l-137 -651l2 -11q-12 -59 -1 -111t41 -92t74 -62.5t99 -22.5q51 0 101.5 20.5t94.5 55t76.5 81.5t51.5 101l147 696h86l-196 -926q-8 -37 -11.5 -65.5t0.5 -32.5h-96l19 94l10 49q-59 -72 -143.5 -116.5t-172.5 -44.5 q-72 0 -127 29.5t-91 80.5t-48 120zM485 1163l267 217l174 -219l-64 -51l-133 170l-205 -170z" />
<glyph unicode="&#xfc;" horiz-adv-x="921" d="M176 212q-12 69 4 146l-4 11l137 651h84l-137 -651l2 -11q-12 -59 -1 -111t41 -92t74 -62.5t99 -22.5q51 0 101.5 20.5t94.5 55t76.5 81.5t51.5 101l147 696h86l-196 -926q-8 -37 -11.5 -65.5t0.5 -32.5h-96l19 94l10 49q-59 -72 -143.5 -116.5t-172.5 -44.5 q-72 0 -127 29.5t-91 80.5t-48 120zM546 1331q4 23 25 39t45 16q23 0 38 -16t11 -39t-26.5 -39t-44.5 -16q-25 0 -38.5 16t-9.5 39zM821 1331q4 23 24.5 39t45.5 16q23 0 38 -16t11 -39t-26.5 -39t-45.5 -16q-25 0 -38 16t-9 39z" />
<glyph unicode="&#xfd;" horiz-adv-x="1095" d="M25 -399l28 88q4 -4 7 -6t8 -7h4q10 0 22 -1t25 -1q72 0 150.5 48.5t133.5 140.5l125 203l-188 970h92l162 -864l524 864h92l-598 -964l-141 -240l-8 -18q-72 -109 -171 -166.5t-196 -57.5q-35 0 -71 11zM772 1133l174 178h135l-262 -178h-47z" />
<glyph unicode="&#xfe;" horiz-adv-x="1058" d="M43 -401l387 1818h86l-98 -456q63 35 145 57t174 22q102 -2 184.5 -44t133.5 -112.5t69.5 -165.5t-4.5 -204q-25 -111 -83 -208t-140 -168.5t-181.5 -113.5t-201.5 -42q-94 0 -162.5 24.5t-126.5 54.5l-98 -462h-84zM256 195q-8 -25 10.5 -47.5t56 -40t92 -27.5 t117.5 -12q82 2 164 37.5t149.5 95t118 140.5t68.5 171q18 88 3 168t-58 140.5t-109.5 96t-148.5 35.5q-59 0 -114.5 -8t-99.5 -23.5t-76 -36t-42 -42.5z" />
<glyph unicode="&#xff;" horiz-adv-x="1095" d="M25 -399l28 88q4 -4 7 -6t8 -7h4q10 0 22 -1t25 -1q72 0 150.5 48.5t133.5 140.5l125 203l-188 970h92l162 -864l524 864h92l-598 -964l-141 -240l-8 -18q-72 -109 -171 -166.5t-196 -57.5q-35 0 -71 11zM655 1331q4 23 25 39t45 16q23 0 38 -16t11 -39t-26.5 -39 t-44.5 -16q-25 0 -38.5 16t-9.5 39zM930 1331q4 23 24.5 39t45.5 16q23 0 38 -16t11 -39t-26.5 -39t-45.5 -16q-25 0 -38 16t-9 39z" />
<glyph unicode="&#x152;" horiz-adv-x="2162" d="M201.5 420q-23.5 133 9.5 287q31 150 109.5 279.5t186 227t236.5 153.5t263 56q182 0 308 -95t175 -259l74 346h817l-17 -82h-731l-114 -536h624l-18 -86h-625l-133 -625h731l-16 -86h-817l71 340q-65 -90 -147 -160q-109 -96 -233 -147t-255 -51q-129 0 -234.5 55 t-173 152.5t-91 230.5zM288.5 458q18.5 -116 75 -202t147.5 -136t208 -50q113 0 220.5 45t198.5 122.5t159.5 183t103.5 228.5l24 113q16 123 -8.5 225t-81.5 180q-55 80 -145 124t-203 44q-115 0 -226.5 -49t-204.5 -134t-161.5 -199.5t-95.5 -245.5q-29 -133 -10.5 -249z " />
<glyph unicode="&#x153;" horiz-adv-x="1802" d="M148.5 302q-17.5 95 5.5 204q23 111 81 207t139 167.5t178 113.5t196 42q147 0 244.5 -89t123.5 -230q37 70 87 129t108.5 102t121 66.5t126.5 23.5q86 0 150.5 -40t104 -109.5t51 -163.5t-13.5 -205l-10 -49h-723q-12 -86 0 -159.5t47 -128t88 -86t121 -31.5q33 0 71 7 t76 18t72.5 24.5t63.5 25.5l18 -75q-59 -29 -124.5 -49.5t-137.5 -32.5h-2q-12 -2 -25.5 -2h-27.5q-68 0 -123 23.5t-98 65.5t-71 100t-36 130q-43 -72 -100.5 -130t-123 -101t-138 -66.5t-146.5 -23.5q-98 0 -177 41.5t-129 113.5t-67.5 167zM235 335q13 -81 54 -140.5 t105.5 -94t146.5 -34.5q80 0 157.5 34.5t143 94t114 140.5t66.5 171q20 92 7 173t-53 141.5t-103.5 95t-143.5 34.5q-82 0 -162 -34.5t-145.5 -95t-113.5 -141.5t-68 -173q-18 -90 -5 -171zM1137 555h641q12 82 -0.5 154.5t-44 126t-80.5 84t-113 30.5q-61 0 -122.5 -30.5 t-116 -84t-97.5 -126t-67 -154.5z" />
<glyph unicode="&#x178;" horiz-adv-x="1394" d="M373 1415h116l359 -692l657 692h115l-743 -774l-136 -641h-88l135 641zM825 1542q4 23 25 39t45 16q23 0 38 -16t11 -39t-26.5 -39t-44.5 -16q-25 0 -38.5 16t-9.5 39zM1100 1542q4 23 24.5 39t45.5 16q23 0 38 -16t11 -39t-26.5 -39t-45.5 -16q-25 0 -38 16t-9 39z" />
<glyph unicode="&#x2c6;" horiz-adv-x="548" d="M311 1163l267 217l174 -219l-64 -51l-133 170l-205 -170z" />
<glyph unicode="&#x2dc;" horiz-adv-x="684" d="M338 1276q70 33 149 33q41 0 70 -9.5t54.5 -20.5t53 -20.5t68.5 -9.5q74 0 125 29l10 -61q-66 -33 -149 -33q-89 0 -144 39q-41 20 -100 20q-35 0 -68.5 -7t-56.5 -22z" />
<glyph unicode="&#x2000;" horiz-adv-x="851" />
<glyph unicode="&#x2001;" horiz-adv-x="1702" />
<glyph unicode="&#x2002;" horiz-adv-x="851" />
<glyph unicode="&#x2003;" horiz-adv-x="1702" />
<glyph unicode="&#x2004;" horiz-adv-x="567" />
<glyph unicode="&#x2005;" horiz-adv-x="425" />
<glyph unicode="&#x2006;" horiz-adv-x="283" />
<glyph unicode="&#x2007;" horiz-adv-x="283" />
<glyph unicode="&#x2008;" horiz-adv-x="212" />
<glyph unicode="&#x2009;" horiz-adv-x="340" />
<glyph unicode="&#x200a;" horiz-adv-x="94" />
<glyph unicode="&#x2010;" horiz-adv-x="862" d="M205 559l16 86h707l-17 -86h-706z" />
<glyph unicode="&#x2011;" horiz-adv-x="862" d="M205 559l16 86h707l-17 -86h-706z" />
<glyph unicode="&#x2012;" horiz-adv-x="862" d="M205 559l16 86h707l-17 -86h-706z" />
<glyph unicode="&#x2013;" horiz-adv-x="851" d="M205 559l16 86h707l-17 -86h-706z" />
<glyph unicode="&#x2014;" horiz-adv-x="1089" d="M205 559l16 86h940l-16 -86h-940z" />
<glyph unicode="&#x2018;" horiz-adv-x="307" d="M330 1214l133 199l14 -8l-49 -152l27 -116l-97 -41z" />
<glyph unicode="&#x2019;" horiz-adv-x="325" d="M313 1139l95 137l12 129l100 10l-12 -129l-186 -160z" />
<glyph unicode="&#x201a;" horiz-adv-x="352" d="M51 -129l109 129l26 131h99l-27 -131l-199 -141z" />
<glyph unicode="&#x201c;" horiz-adv-x="446" d="M344 1286l41 129l96 -10l-41 -129l37 -137l-16 -13zM494 1286l41 129l96 -10l-41 -129l37 -137l-17 -13z" />
<glyph unicode="&#x201d;" horiz-adv-x="485" d="M313 1139l95 137l12 129l100 10l-12 -129l-186 -160zM463 1139l94 137l12 129l101 10l-13 -129l-186 -160z" />
<glyph unicode="&#x201e;" horiz-adv-x="473" d="M33 -125l104 131l25 129h100l-29 -129l-194 -143zM182 -127l107 131l26 129h97l-27 -131l-197 -143z" />
<glyph unicode="&#x2022;" horiz-adv-x="428" d="M258 786q10 51 57 90t99 39q49 0 79.5 -38.5t20.5 -90.5q-4 -23 -20.5 -45t-38 -39.5t-47 -27.5t-50.5 -10q-51 0 -80.5 37.5t-19.5 84.5z" />
<glyph unicode="&#x2026;" horiz-adv-x="890" d="M88 0l27 131h131l-27 -131h-131zM385 0l27 131h131l-27 -131h-131zM682 0l27 131h131l-27 -131h-131z" />
<glyph unicode="&#x202f;" horiz-adv-x="340" />
<glyph unicode="&#x2039;" horiz-adv-x="720" d="M205 508l606 504l49 -60l-534 -444l348 -434l-74 -64z" />
<glyph unicode="&#x203a;" horiz-adv-x="702" d="M113 74l532 434l-346 444l78 60l389 -504l-604 -498z" />
<glyph unicode="&#x205f;" horiz-adv-x="425" />
<glyph unicode="&#x20ac;" horiz-adv-x="1525" d="M197 535l18 88h205q4 18 5 38.5t5 38.5q8 33 17.5 62t17.5 55h-209l18 86h228q55 113 138 208t183.5 165t212 108.5t224.5 38.5q150 0 264 -62.5t188 -164.5l-78 -63q-66 94 -162 148t-231 54q-96 0 -191.5 -31.5t-181.5 -89t-157.5 -137.5t-120.5 -174h702l-18 -86h-721 q-10 -27 -18.5 -55.5t-16.5 -61.5q-4 -18 -6 -38.5t-6 -38.5h727l-19 -88h-706q2 -100 37 -185.5t96 -148t146 -97t186 -34.5q135 0 255 55t224 154l49 -70q-117 -102 -257 -164.5t-290 -62.5q-121 0 -219 42t-168.5 115.5t-109.5 175t-41 220.5h-219z" />
<glyph unicode="&#x2122;" horiz-adv-x="854" d="M348 1339l12 60h308l-13 -60h-118l-76 -356h-66l76 356h-123zM618 983l89 416h53l71 -195q41 53 79 100.5t77 94.5h51l-88 -416h-61l59 283q-31 -37 -63.5 -76t-55.5 -72h-32l-56 148l-59 -283h-64z" />
<glyph unicode="&#x25fc;" horiz-adv-x="1024" d="M0 0v1024h1024v-1024h-1024z" />
<glyph unicode="&#xfb01;" horiz-adv-x="1034" d="M233 0l193 913h-156l19 88h151q2 0 6 15q0 8 5 24q2 8 2 15l6 24q18 70 56 132.5t88 109.5t108.5 74.5t117.5 27.5h50.5t48.5 -4l-43 -84q-12 4 -33 4h-39q-47 -2 -91 -24.5t-81 -61.5t-64.5 -90t-39.5 -108l-13 -54h269l-211 -1001h-84l192 913h-184l-193 -913h-80z" />
<glyph unicode="&#xfb02;" horiz-adv-x="1003" d="M233 0l193 913h-156l19 88h151q2 0 6 15q0 8 5 24q2 8 2 15l6 24q18 72 56 134.5t88 108.5t108.5 72.5t117.5 28.5h11h88l-301 -1423h-88l192 913h-225l-193 -913h-80zM524 1001h226l73 338h-10q-47 -2 -91 -24.5t-81 -61.5t-64.5 -90t-39.5 -108z" />
</font>
</defs>
</svg>
